<svg xmlns="http://www.w3.org/2000/svg" xmlns:xlink="http://www.w3.org/1999/xlink" viewBox="0 0 200 246.5" xmlns:v="https://vecta.io/nano"><style><![CDATA[.Dh{enable-background:new}.Di{opacity:.922}.Dj{fill:#9aa7d5}.Dk{opacity:.02}.Dl{opacity:.039}.Dm{opacity:.059}.Dn{opacity:.078}.Do{opacity:.098}.Dp{opacity:.118}.Dq{opacity:.137}.Dr{opacity:.157}.Ds{opacity:.196}.Dt{opacity:.216}.Du{opacity:.235}.Dv{opacity:.255}.Dw{opacity:.275}.Dx{opacity:.294}.Dy{opacity:.314}.Dz{opacity:.333}.EA{opacity:.353}.EB{opacity:.373}.EC{opacity:.392}.ED{opacity:.412}.EE{opacity:.431}.EF{opacity:.451}.EG{opacity:.471}.EH{opacity:.49}.EI{opacity:.51}.EJ{opacity:.529}.EK{opacity:.549}.EL{opacity:.569}.EM{opacity:.588}.EN{opacity:.608}.EO{opacity:.647}.EP{opacity:.667}.EQ{opacity:.686}.ER{opacity:.706}.ES{opacity:.745}.ET{opacity:.765}.EU{opacity:.784}.EV{opacity:.804}.EW{opacity:.824}.EX{opacity:.843}.EY{opacity:.863}.EZ{opacity:.882}.Ea{opacity:.902}.Eb{opacity:.941}.Ec{opacity:.961}.Ed{opacity:.98}.Ee{fill:#7100b9}.Ef{opacity:.5}.Eg{fill-opacity:0}.Eh{opacity:.177}.Ei{opacity:.628}.Ej{opacity:.726}.Ek{fill:#49486b}.El{fill:#5c629e}.Em{fill:#d4daed}.En{fill:#f7f6f7}.Eo{fill:#f1eff2}.Ep{fill:#ebeaed}.Eq{fill:#e6e4e9}.Er{fill:#e1dfe5}.Es{fill:#dddae1}.Et{fill:#d8d6dd}.Eu{fill:#d4d1d9}.Ev{fill:#cfcdd6}.Ew{fill:#cbc8d2}.Ex{fill:#c7c4cf}.Ey{fill:#c3c0cb}.Ez{fill:#bfbbc8}.FA{fill:#bbb7c5}.FB{fill:#b7b3c2}.FC{fill:#b4afbe}.FD{fill:#b0abbb}.FE{fill:#aca8b8}.FF{fill:#a9a4b5}.FG{fill:#a5a0b2}.FH{fill:#a29caf}.FI{fill:#9e99ac}.FJ{fill:#9a95a9}.FK{fill:#9792a7}.FL{fill:#948ea4}.FM{fill:#908ba1}.FN{fill:#8d889e}.FO{fill:#8a849c}.FP{fill:#878199}.FQ{fill:#847e97}.FR{fill:#817b94}.FS{fill:#7e7892}.FT{fill:#7b758f}.FU{fill:#78738d}.FV{fill:#75708b}.FW{fill:#726d89}.FX{fill:#6f6a86}.FY{fill:#6d6884}.FZ{fill:#6a6582}.Fa{fill:#676380}.Fb{fill:#64607e}.Fc{fill:#615e7c}.Fd{fill:#5f5b7a}.Fe{fill:#5c5978}.Ff{fill:#595676}.Fg{fill:#565474}.Fh{fill:#545272}.Fi{fill:#514f70}.Fj{fill:#4e4d6e}.Fk{fill:#4b4b6c}.Fl{fill:#5d629e}.Fm{fill:#ebedf7}]]></style><g class="Ef"><path d="M58.1 147.7l39.7-23c1.3-.8 3-.8 4.3 0l39.8 23c1.5.8 2 2.6 1.2 4.1-.3.5-.7.9-1.2 1.2l-39.8 23c-1.3.8-3 .8-4.3 0l-39.7-23c-1.5-.8-2-2.6-1.2-4.1.3-.5.7-.9 1.2-1.2z" fill="#fff" class="Eg"/><path d="M58.3 147.7l39.6-22.8c1.3-.8 3-.8 4.3 0l39.6 22.8c1.4.8 2 2.6 1.2 4.1-.3.5-.7.9-1.2 1.2l-39.6 22.9c-1.3.8-3 .8-4.3 0L58.3 153c-1.5-.8-2-2.6-1.2-4.1.3-.5.7-.9 1.2-1.2z" class="Dh Dk En"/><path d="M58.5 147.7L97.9 125c1.3-.8 2.9-.8 4.3 0l39.4 22.7c1.4.8 2 2.6 1.1 4.1-.3.5-.7.9-1.1 1.1l-39.4 22.7c-1.3.8-2.9.8-4.3 0L58.5 153c-1.5-.8-2-2.6-1.2-4.1.3-.5.7-.9 1.2-1.2z" class="Dh Dl Eo"/><path d="M58.7 147.8l39.2-22.6c1.3-.8 2.9-.8 4.2 0l39.2 22.6c1.4.8 1.9 2.7 1.1 4.1-.3.5-.7.9-1.1 1.1l-39.2 22.6c-1.3.8-2.9.8-4.2 0L58.7 153c-1.4-.8-2-2.6-1.2-4.1.3-.5.7-.9 1.2-1.1z" class="Dh Dm Ep"/><path d="M58.8 147.8l39-22.5c1.3-.8 2.9-.8 4.2 0l39 22.5c1.4.8 1.9 2.7 1.1 4.1-.3.4-.6.8-1.1 1.1l-39 22.5c-1.3.8-2.9.8-4.2 0l-39-22.5c-1.4-.8-2-2.6-1.1-4.1.3-.5.7-.9 1.1-1.1z" class="Dh Dn Eq"/><path d="M59 147.8l38.8-22.4c1.3-.8 2.9-.8 4.2 0l38.8 22.4c1.4.8 1.9 2.7 1 4.1-.3.4-.6.8-1 1L102 175.4c-1.3.8-2.9.8-4.2 0L59 152.9c-1.4-.8-1.9-2.7-1-4.1a2.41 2.41 0 0 1 1-1z" class="Dh Do Er"/><path d="M59.2 147.8l38.7-22.3c1.3-.7 2.9-.7 4.2 0l38.7 22.3c1.4.9 1.9 2.7 1 4.1-.3.4-.6.8-1 1l-38.7 22.3c-1.3.7-2.9.7-4.2 0l-38.7-22.3c-1.4-.9-1.9-2.7-1-4.1.3-.4.6-.8 1-1z" class="Dh Dp Es"/><path d="M59.4 147.8l38.5-22.2c1.3-.7 2.9-.7 4.2 0l38.5 22.2c1.4.9 1.9 2.7 1 4.1-.2.4-.6.7-1 1l-38.5 22.2c-1.3.7-2.9.7-4.2 0l-38.5-22.2c-1.4-.9-1.9-2.7-1-4.1.3-.4.6-.8 1-1z" class="Dh Dq Et"/><path d="M59.6 147.8l38.3-22.1c1.3-.7 2.9-.7 4.1 0l38.3 22.1c1.4.8 1.9 2.6 1.1 4-.3.4-.6.8-1.1 1.1L102.1 175c-1.3.7-2.9.7-4.1 0l-38.3-22.1c-1.4-.8-1.9-2.6-1.1-4 .2-.5.6-.8 1-1.1z" class="Dh Dr Eu"/><path d="M59.8 147.8l38.1-22c1.3-.7 2.8-.7 4.1 0l38.1 22c1.4.8 1.9 2.6 1.1 4-.3.4-.6.8-1.1 1.1l-38.1 22c-1.3.7-2.8.7-4.1 0l-38.1-22c-1.4-.8-1.9-2.6-1.1-4a5.73 5.73 0 0 1 1.1-1.1z" class="Dh Eh Ev"/><path d="M60 147.8l37.9-21.9c1.3-.7 2.8-.7 4.1 0l38 21.9c1.4.8 1.8 2.6 1 4a2.41 2.41 0 0 1-1 1l-38 21.9c-1.3.7-2.8.7-4.1 0L60 152.9c-1.4-.8-1.9-2.6-1.1-4a5.73 5.73 0 0 1 1.1-1.1z" class="Dh Ds Ew"/><path d="M60.2 147.9L97.9 126c1.3-.7 2.8-.7 4.1 0l37.8 21.8c1.4.8 1.8 2.6 1 4-.3.4-.6.8-1 1L102 174.7c-1.3.7-2.8.7-4.1 0l-37.8-21.8c-1.4-.8-1.8-2.6-1-4 .3-.4.6-.8 1.1-1z" class="Dh Dt Ex"/><path d="M60.4 147.9L98 126.2c1.3-.7 2.8-.7 4.1 0l37.6 21.7c1.4.8 1.9 2.5 1.1 3.9-.3.4-.6.8-1.1 1.1L102 174.6c-1.3.7-2.8.7-4.1 0l-37.6-21.7a2.82 2.82 0 0 1-1-3.9c.3-.5.6-.9 1.1-1.1z" class="Dh Du Ey"/><path d="M60.6 147.9L98 126.3c1.2-.7 2.8-.7 4 0l37.4 21.6c1.4.8 1.9 2.5 1.1 3.9-.3.5-.6.8-1.1 1.1L102 174.4c-1.2.7-2.8.7-4 0l-37.4-21.6c-1.4-.8-1.9-2.5-1.1-3.9.3-.4.6-.8 1.1-1z" class="Dh Dv Ez"/><path d="M60.8 147.9L98 126.4c1.2-.7 2.8-.7 4 0l37.2 21.5c1.4.8 1.8 2.5 1 3.9-.3.4-.6.8-1 1L102 174.3c-1.2.7-2.8.7-4 0l-37.2-21.5c-1.4-.8-1.8-2.5-1-3.9.2-.4.5-.8 1-1z" class="Dh Dw FA"/><path d="M61 147.9l37-21.4c1.2-.7 2.8-.7 4 0l37 21.4c1.4.8 1.8 2.5 1 3.9a2.41 2.41 0 0 1-1 1l-37 21.4c-1.2.7-2.8.7-4 0l-37-21.4c-1.2-1.1-.9-3.2.2-4.4 0 0 0-.1-.2-.5z" class="Dh Dx FB"/><path d="M61.1 147.9L98 126.6c1.2-.7 2.8-.7 4 0l36.9 21.3c1.4.8 1.8 2.5 1 3.9a2.41 2.41 0 0 1-1 1L102 174.1c-1.2.7-2.8.7-4 0l-36.9-21.3c-1.4-.8-1.8-2.5-1-3.9a4.74 4.74 0 0 1 1-1z" class="Dh Dy FC"/><path d="M61.3 147.9L98 126.8c1.2-.7 2.8-.7 4 0l36.7 21.2c1.3.8 1.8 2.5 1 3.8a2.41 2.41 0 0 1-1 1L102 174c-1.2.7-2.8.7-4 0l-36.7-21.2c-1.3-.8-1.8-2.5-1-3.8.2-.5.6-.8 1-1.1z" class="Dh Dz FD"/><path d="M61.5 147.9l36.5-21c1.2-.7 2.7-.7 3.9 0l36.5 21.1c1.3.8 1.8 2.5 1 3.8a2.41 2.41 0 0 1-1 1L102 173.9c-1.2.7-2.7.7-3.9 0l-36.5-21.1c-1.3-.8-1.8-2.5-1-3.8.1-.5.5-.8.9-1.1z" class="Dh EA FE"/><path d="M61.7 147.9L98 127c1.2-.7 2.7-.7 3.9 0l36.3 21c1.3.8 1.8 2.5 1 3.8a2.41 2.41 0 0 1-1 1l-36.3 21c-1.2.7-2.7.7-3.9 0l-36.3-21c-1.3-.7-1.8-2.4-1.1-3.8.3-.4.6-.8 1.1-1.1z" class="Dh EB FF"/><path d="M61.9 148L98 127.1c1.2-.7 2.7-.7 3.9 0l36.2 20.9c1.3.8 1.8 2.5 1 3.8a2.41 2.41 0 0 1-1 1L102 173.7c-1.2.7-2.7.7-3.9 0L62 152.8c-1.3-.8-1.7-2.5-1-3.8.2-.4.5-.8.9-1z" class="Dh EC FG"/><path d="M62.1 148l36-20.8c1.2-.7 2.7-.7 3.9 0l36 20.8c1.3.8 1.8 2.5 1 3.8a2.41 2.41 0 0 1-1 1l-36 20.8c-1.2.7-2.7.7-3.9 0l-36-20.8c-1.5 0-2.8-.9-2.8-2.4s1.3-2.8 2.8-2.4z" class="Dh ED FH"/><path d="M62.3 148l35.8-20.7c1.2-.7 2.7-.7 3.9 0l35.8 20.7c1.3.8 1.8 2.4 1 3.7a2.41 2.41 0 0 1-1 1L102 173.4c-1.2.7-2.7.7-3.9 0l-35.8-20.7c-1.3-.8-1.8-2.4-1-3.7a2.41 2.41 0 0 1 1-1z" class="Dh EE FI"/><path d="M62.5 148l35.6-20.6c1.2-.7 2.7-.7 3.8 0l35.6 20.6c1.3.8 1.8 2.4 1 3.7a2.41 2.41 0 0 1-1 1l-35.6 20.6c-1.2.7-2.7.7-3.8 0l-35.6-20.6a2.76 2.76 0 0 1-1-3.7 2.41 2.41 0 0 1 1-1z" class="Dh EF FJ"/><path d="M62.7 148l35.4-20.4a3.7 3.7 0 0 1 3.8 0l35.4 20.4a2.76 2.76 0 0 1 1 3.7c-.2.4-.6.7-1 1l-35.4 20.4a3.7 3.7 0 0 1-3.8 0l-35.4-20.4a2.76 2.76 0 0 1-1-3.7c.2-.4.5-.8 1-1z" class="Dh EG FK"/><path d="M62.8 148L98 127.7a3.7 3.7 0 0 1 3.8 0L137 148c1.3.7 1.7 2.4 1 3.7a2.41 2.41 0 0 1-1 1L101.9 173a3.7 3.7 0 0 1-3.8 0l-35.2-20.3c-1.3-.7-1.8-2.4-1-3.7.2-.4.5-.8.9-1z" class="Dh EH FL"/><path d="M63 148l35.1-20.2a3.7 3.7 0 0 1 3.8 0L137 148c1.3.7 1.7 2.4 1 3.7-.2.4-.6.7-1 1l-35.1 20.2a3.7 3.7 0 0 1-3.8 0L63 152.7c-1.3-.7-1.8-2.4-1-3.7a2.41 2.41 0 0 1 1-1z" class="Dh EI FM"/><path d="M63.2 148l34.9-20.1a3.7 3.7 0 0 1 3.8 0l34.9 20.1c1.3.7 1.7 2.4 1 3.6-.2.4-.6.7-1 1l-34.9 20.1a3.7 3.7 0 0 1-3.8 0l-34.9-20.1c-1.3-.7-1.8-2.3-1.1-3.6.3-.4.7-.8 1.1-1z" class="Dh EJ FN"/><path d="M63.4 148.1l34.7-20a3.7 3.7 0 0 1 3.8 0l34.7 20c1.3.7 1.7 2.4 1 3.6-.2.4-.6.7-1 1l-34.7 20a3.7 3.7 0 0 1-3.8 0l-34.7-20c-.7-1 .3-3 0-4.6z" class="Dh EK FO"/><path d="M63.6 148.1l34.5-19.9c1.2-.7 2.6-.7 3.7 0l34.5 19.9c1.3.7 1.7 2.4 1 3.6-.2.4-.6.7-1 1l-34.5 19.9c-1.2.7-2.6.7-3.7 0l-34.5-19.9c-1.3-.7-1.7-2.4-1-3.6.3-.5.6-.8 1-1z" class="Dh EL FP"/><path d="M63.8 148.1l34.3-19.8c1.1-.7 2.6-.7 3.7 0l34.3 19.8c1.3.7 1.7 2.3 1 3.6-.2.4-.6.7-1 1l-34.3 19.8c-1.1.7-2.6.7-3.7 0l-34.3-19.8c-1.3-.7-1.7-2.3-1-3.6.3-.5.6-.8 1-1z" class="Dh EM FQ"/><path d="M64 148.1l34.2-19.7c1.1-.7 2.5-.7 3.7 0l34.2 19.7c1.3.7 1.7 2.3 1 3.6-.2.4-.6.7-1 1l-34.2 19.7c-1.1.7-2.5.7-3.7 0L64 152.6c-1.3-.7-1.7-2.3-1-3.6.3-.3.6-.7 1-.9z" class="Dh EN FR"/><path d="M64.2 148.1l34-19.6c1.1-.7 2.5-.7 3.7 0l34 19.6c1.2.7 1.7 2.3 1 3.5-.2.4-.6.7-1 1l-34 19.6c-1.1.7-2.5.7-3.7 0l-34-19.6a2.53 2.53 0 0 1-1-3.5c.2-.4.5-.8 1-1z" class="Dh Ei FS"/><path d="M64.4 148.1l33.8-19.5c1.1-.7 2.5-.7 3.7 0l33.8 19.5c1.2.7 1.7 2.3 1 3.5-.2.4-.6.7-1 1l-33.8 19.5c-1.1.7-2.5.7-3.7 0l-33.8-19.5c-1.2-.7-1.7-2.3-.9-3.5.2-.4.5-.8.9-1z" class="Dh EO FT"/><path d="M64.6 148.1l33.6-19.4c1.1-.6 2.5-.6 3.6 0l33.6 19.4c1.2.7 1.6 2.3.9 3.5a1.96 1.96 0 0 1-.9.9L101.8 172c-1.1.6-2.5.6-3.6 0l-33.6-19.4c-1.2-.7-1.6-2.3-.9-3.5.2-.4.5-.7.9-1z" class="Dh EP FU"/><path d="M64.8 148.1l33.4-19.3c1.1-.6 2.5-.6 3.6 0l33.4 19.3c1.2.7 1.6 2.3.9 3.5-.2.4-.6.7-.9.9l-33.4 19.3c-1.1.6-2.5.6-3.6 0l-33.4-19.3c-1.4 0-2.6-.8-2.6-2.2s1.1-2.5 2.6-2.2z" class="Dh EQ FV"/><path d="M64.9 148.1L98.2 129c1.1-.6 2.5-.6 3.6 0l33.2 19.1c1.2.7 1.6 2.3.9 3.5a1.96 1.96 0 0 1-.9.9l-33.3 19.2c-1.1.6-2.5.6-3.6 0l-33.3-19.2c-1.2-.7-1.6-2.3-.9-3.5.3-.3.6-.6 1-.9z" class="Dh ER FW"/><path d="M65.1 148.2l33.1-19.1c1.1-.6 2.5-.6 3.6 0l33.1 19.1c1.2.7 1.6 2.3.9 3.5a1.96 1.96 0 0 1-.9.9l-33.1 19.1c-1.1.6-2.5.6-3.6 0l-33.1-19.1c-1.2-.7-1.6-2.3-.9-3.5a1.96 1.96 0 0 1 .9-.9z" class="Dh Ej FX"/><path d="M65.3 148.2l32.9-19c1.1-.6 2.5-.6 3.6 0l32.9 19c1.2.7 1.6 2.2.9 3.4a1.96 1.96 0 0 1-.9.9l-32.9 19c-1.1.6-2.5.6-3.6 0l-32.9-19c-1.1-.9-1.1-2.7-.2-3.8.2-.1.3-.2.2-.5z" class="Dh ES FY"/><path d="M65.5 148.2l32.7-18.9c1.1-.6 2.4-.6 3.5 0l32.7 18.9c1.2.7 1.6 2.2.9 3.4a1.96 1.96 0 0 1-.9.9l-32.7 18.9c-1.1.6-2.4.6-3.5 0l-32.7-18.9c-1.2-.7-1.6-2.2-.9-3.4a1.96 1.96 0 0 1 .9-.9z" class="Dh ET FZ"/><path d="M65.7 148.2l32.5-18.8c1.1-.6 2.4-.6 3.5 0l32.5 18.8c1.2.7 1.6 2.2.9 3.4a1.96 1.96 0 0 1-.9.9l-32.5 18.8c-1.1.6-2.4.6-3.5 0l-32.5-18.8c-1.2-.7-1.6-2.2-.9-3.4a1.96 1.96 0 0 1 .9-.9z" class="Dh EU Fa"/><path d="M65.9 148.2l32.3-18.7c1.1-.6 2.4-.6 3.5 0l32.3 18.7c1.2.7 1.6 2.2.9 3.4a1.96 1.96 0 0 1-.9.9l-32.3 18.7c-1.1.6-2.4.6-3.5 0l-32.3-18.7c-1.2-.7-1.6-2.2-.9-3.4a1.96 1.96 0 0 1 .9-.9z" class="Dh EV Fb"/><use xlink:href="#AF" class="Dh EW Fc"/><path d="M66.3 148.2l32-18.5c1.1-.6 2.4-.6 3.5 0l32 18.5c1.2.7 1.6 2.2.9 3.3a1.96 1.96 0 0 1-.9.9l-32 18.5c-1.1.6-2.4.6-3.5 0l-32-18.5c-1.1-.8-1.1-2.6-.3-3.6.1-.1.3-.2.3-.6z" class="Dh EX Fd"/><path d="M66.5 148.3l31.8-18.4c1.1-.6 2.4-.6 3.4 0l31.8 18.4c1.2.7 1.6 2.2.9 3.3a1.96 1.96 0 0 1-.9.9l-31.8 18.4c-1.1.6-2.4.6-3.4 0l-31.8-18.4c-1.2-.7-1.6-2.2-.9-3.3a1.96 1.96 0 0 1 .9-.9z" class="Dh EY Fe"/><path d="M66.7 148.3L98.3 130c1.1-.6 2.4-.6 3.4 0l31.6 18.3c1.2.7 1.6 2.1.9 3.3a1.96 1.96 0 0 1-.9.9l-31.6 18.3c-1.1.6-2.4.6-3.4 0l-31.6-18.3c-1.2-.7-1.6-2.1-.9-3.3a1.96 1.96 0 0 1 .9-.9z" class="Dh EZ Ff"/><path d="M66.8 148.3l31.4-18.1c1.1-.6 2.3-.6 3.4 0l31.4 18.1c1.2.7 1.6 2.1.9 3.3a1.96 1.96 0 0 1-.9.9l-31.4 18.2c-1.1.6-2.3.6-3.4 0l-31.4-18.2c-1.2-.7-1.6-2.1-.9-3.3.3-.4.6-.7.9-.9z" class="Dh Ea Fg"/><path d="M67 148.3l31.3-18c1-.6 2.3-.6 3.4 0l31.3 18c1.1.7 1.5 2.1.9 3.3a1.96 1.96 0 0 1-.9.9l-31.3 18c-1 .6-2.3.6-3.4 0l-31.3-18c-1.1-.7-1.5-2.1-.9-3.3a1.96 1.96 0 0 1 .9-.9z" class="Dh Di Fh"/><path d="M67.2 148.3l31.1-17.9c1-.6 2.3-.6 3.4 0l31.1 17.9c1.1.7 1.5 2.1.9 3.2a1.96 1.96 0 0 1-.9.9l-31.1 17.9c-1 .6-2.3.6-3.4 0l-31.1-18c-1.1-.7-1.5-2.1-.9-3.3.3-.2.6-.5.9-.7z" class="Dh Eb Fi"/><path d="M67.4 148.3l30.9-17.8a3.25 3.25 0 0 1 3.3 0l30.9 17.8c1.1.7 1.5 2.1.9 3.2a1.96 1.96 0 0 1-.9.9l-30.9 17.8a3.25 3.25 0 0 1-3.3 0l-30.9-17.8c-1.1-.7-1.5-2.1-.9-3.2.3-.4.6-.7.9-.9z" class="Dh Ec Fj"/><path d="M67.6 148.3l30.7-17.7a3.25 3.25 0 0 1 3.3 0l30.7 17.7c1.1.7 1.5 2.1.9 3.2-.2.4-.5.6-.9.9l-30.7 17.7a3.25 3.25 0 0 1-3.3 0l-30.7-17.7c-1.1-.7-1.5-2.1-.9-3.2.3-.4.6-.7.9-.9z" class="Dh Ed Fk"/><path d="M67.8 148.3l30.5-17.6a3.25 3.25 0 0 1 3.3 0l30.5 17.6c1.1.6 1.5 2.1.9 3.2a1.96 1.96 0 0 1-.9.9L101.6 170a3.25 3.25 0 0 1-3.3 0l-30.5-17.6c-1.1-.6-1.5-2.1-.9-3.2a1.96 1.96 0 0 1 .9-.9z" class="Ek"/></g><path d="M64.2 47.2L100 26.5l35.8 20.7L100 67.9z" fill="#acb6dd"/><path d="M64.2 47.2v104l35.8 20.7v-104z" fill="#a3aed9"/><path d="M100 171.9l35.8-20.7v-104L100 67.9z" class="Dj"/><path d="M100 110.5l-.3-.2-35.5-20.5v-1.4l35.8 20.7 35.8-20.7v1.4zm0 20.5l-35.8-20.5V109l35.8 20.6 35.8-20.7v1.4zm0 20.6L64.2 131v-1.4l35.8 20.6 35.8-20.6v1.4zm2.3-60.3l6.6-3.9V90l-6.6 3.8zm8-4.6l6.7-3.8v2.6l-6.7 3.8zm-8 25.4l6.6-3.8v2.6l-6.6 3.8zm8-4.5l6.7-3.8v2.5l-6.7 3.8zm-8 25.3l6.6-3.8v2.6l-6.6 3.8zm8-4.5l6.7-3.8v2.6l-6.7 3.8zm-8 25.4l6.6-3.8v2.6l-6.6 3.8zm8-4.5l6.7-3.8v2.5l-6.7 3.8z" class="Fl"/><path d="M114.2 55.4c7.8-4.5 7.8-11.9 0-16.4s-20.7-4.5-28.5 0-7.8 11.9 0 16.4 20.6 4.5 28.5 0z" class="Dj"/><path d="M85.8 41.5c7.8-4.5 20.6-4.5 28.5 0 3.4 2 5.3 4.4 5.8 7 .6-3.4-1.3-6.8-5.8-9.4-7.8-4.5-20.7-4.5-28.5 0-4.4 2.6-6.3 6-5.7 9.4.4-2.6 2.3-5.1 5.7-7z" class="Ek"/><g class="Fl"><use xlink:href="#AG"/><use xlink:href="#AG" x="4.1" y="2.7"/><path d="M100 89.3l-.3-.1-35.5-20.6v-1.4L100 87.9l35.8-20.7v1.4zm2.3-19.2l6.6-3.8v2.5l-6.6 3.9zm8-4.5l6.7-3.8v2.5l-6.7 3.8zM70.6 61c-.6-.3-1-.1-1 .6s.4 1.4 1 1.8c.6.3 1 .1 1-.6s-.4-1.3-1-1.8zm4.1 2.7c-.6-.3-1-.1-1 .6s.4 1.4 1 1.8c.6.3 1 .1 1-.6s-.4-1.3-1-1.8z"/><use xlink:href="#AG" y="21.1"/><use xlink:href="#AG" x="4.1" y="23.8"/><use xlink:href="#AG" y="41.8"/><use xlink:href="#AG" x="4.1" y="44.5"/><use xlink:href="#AG" y="62.6"/><use xlink:href="#AG" x="4.1" y="65.3"/></g><g class="Dj Ef"><use xlink:href="#AH"/><use xlink:href="#AH" y="-0.7" class="Dh Ed"/><use xlink:href="#AH" y="-1.4" class="Dh Ec"/><use xlink:href="#AH" y="-2.1" class="Dh Eb"/><use xlink:href="#AH" y="-2.8" class="Dh Di"/><use xlink:href="#AH" y="-3.5" class="Dh Ea"/><use xlink:href="#AH" y="-4.2" class="Dh EZ"/><use xlink:href="#AH" y="-4.9" class="Dh EY"/><use xlink:href="#AH" y="-5.6" class="Dh EX"/><use xlink:href="#AH" y="-6.3" class="Dh EW"/><use xlink:href="#AH" y="-7" class="Dh EV"/><use xlink:href="#AH" y="-7.7" class="Dh EU"/><use xlink:href="#AH" y="-8.4" class="Dh ET"/><use xlink:href="#AH" y="-9.1" class="Dh ES"/><use xlink:href="#AI" class="Dh Ej"/><use xlink:href="#AI" y="-0.7" class="Dh ER"/><use xlink:href="#AI" y="-1.4" class="Dh EQ"/><use xlink:href="#AH" y="-11.9" class="Dh EP"/><use xlink:href="#AH" y="-12.6" class="Dh EO"/><use xlink:href="#AI" y="-3.5" class="Dh Ei"/><use xlink:href="#AI" y="-4.2" class="Dh EN"/><use xlink:href="#AI" y="-4.9" class="Dh EM"/><use xlink:href="#AH" y="-15.4" class="Dh EL"/><use xlink:href="#AH" y="-16.1" class="Dh EK"/><use xlink:href="#AH" y="-16.7" class="Dh EJ"/><use xlink:href="#AH" y="-17.4" class="Dh EI"/><use xlink:href="#AH" y="-18.1" class="Dh EH"/><use xlink:href="#AH" y="-18.9" class="Dh EG"/><use xlink:href="#AH" y="-19.6" class="Dh EF"/><use xlink:href="#AH" y="-20.2" class="Dh EE"/><use xlink:href="#AH" y="-20.9" class="Dh ED"/><use xlink:href="#AH" y="-21.6" class="Dh EC"/><use xlink:href="#AI" y="-12.6" class="Dh EB"/><use xlink:href="#AI" y="-13.3" class="Dh EA"/><use xlink:href="#AI" y="-14" class="Dh Dz"/><use xlink:href="#AH" y="-24.4" class="Dh Dy"/><use xlink:href="#AH" y="-25.1" class="Dh Dx"/><use xlink:href="#AI" y="-16.1" class="Dh Dw"/><path d="M114 28.9c7.8-4.5 7.8-11.9 0-16.4s-20.7-4.5-28.4 0-7.8 11.9 0 16.4 20.6 4.5 28.4 0z" class="Dh Dv"/><use xlink:href="#AH" y="-27.2" class="Dh Du"/><use xlink:href="#AH" y="-27.9" class="Dh Dt"/><use xlink:href="#AH" y="-28.6" class="Dh Ds"/><use xlink:href="#AH" y="-29.3" class="Dh Eh"/><path d="M114 25.4c7.8-4.5 7.8-11.9 0-16.4S93.3 4.5 85.6 9s-7.8 11.9 0 16.4 20.6 4.5 28.4 0z" class="Dh Dr"/><use xlink:href="#AH" y="-30.7" class="Dh Dq"/><use xlink:href="#AH" y="-31.4" class="Dh Dp"/><use xlink:href="#AH" y="-32.1" class="Dh Do"/><use xlink:href="#AH" y="-32.8" class="Dh Dn"/><path d="M114 21.9c7.8-4.5 7.8-11.9 0-16.4S93.3 1 85.6 5.5s-7.8 11.9 0 16.4 20.6 4.5 28.4 0z" class="Dh Dm"/><path d="M114 21.2c7.8-4.5 7.8-11.9 0-16.4S93.3.3 85.6 4.8s-7.8 11.9 0 16.4 20.6 4.5 28.4 0z" class="Dh Dl"/><use xlink:href="#AH" y="-34.9" class="Dh Dk"/><use xlink:href="#AH" y="-35.6" class="Eg"/></g><g class="Ef"><path d="M120.8 180.7l36.9-21.3c1.2-.7 2.8-.7 4 0l36.9 21.3c1.4.8 1.8 2.5 1 3.9a2.41 2.41 0 0 1-1 1l-36.9 21.3c-1.2.7-2.8.7-4 0l-36.9-21.3c-1.6 0-2.8-.9-2.8-2.4 0-1.6 1.3-2.9 2.8-2.5z" fill="#fff" class="Eg"/><path d="M121 180.7l36.7-21.2c1.2-.7 2.8-.7 4 0l36.7 21.2c1.3.8 1.8 2.5 1 3.8a2.41 2.41 0 0 1-1 1l-36.7 21.2c-1.2.7-2.8.7-4 0L121 185.6c-1.3-.8-1.8-2.5-1-3.8a2.17 2.17 0 0 1 1-1.1z" class="Dh Dk En"/><path d="M121.2 180.7l36.5-21.1c1.2-.7 2.8-.7 4 0l36.5 21.1c1.3.8 1.8 2.5 1 3.8a2.41 2.41 0 0 1-1 1l-36.5 21.1c-1.2.7-2.8.7-4 0l-36.5-21.1c-1.3-.8-1.8-2.5-1-3.8a2.41 2.41 0 0 1 1-1z" class="Dh Dl Eo"/><path d="M121.4 180.7l36.4-21c1.2-.7 2.7-.7 3.9 0l36.4 21c1.3.8 1.8 2.5 1 3.8a2.41 2.41 0 0 1-1 1l-36.4 21c-1.2.7-2.7.7-3.9 0l-36.4-21c-1.2-.9-1.4-2.8-.5-4.1.1-.2.4-.4.5-.7z" class="Dh Dm Ep"/><path d="M121.6 180.7l36.2-20.9c1.2-.7 2.7-.7 3.9 0l36.2 20.9c1.3.8 1.8 2.5 1 3.8a2.41 2.41 0 0 1-1 1l-36.2 20.9c-1.2.7-2.7.7-3.9 0l-36.2-20.9c-1.3-.8-1.8-2.5-1-3.8.2-.4.5-.7 1-1z" class="Dh Dn Eq"/><path d="M121.7 180.7l36-20.8c1.2-.7 2.7-.7 3.9 0l36 20.8c1.3.8 1.8 2.4 1 3.8a2.41 2.41 0 0 1-1 1l-36 20.8c-1.2.7-2.7.7-3.9 0l-36-20.8c-1.1-1-.8-3.2.2-4.3.1 0 .2-.1-.2-.5z" class="Dh Do Er"/><path d="M121.9 180.7l35.9-20.7c1.2-.7 2.7-.7 3.9 0l35.9 20.7c1.3.8 1.8 2.4 1 3.8a2.41 2.41 0 0 1-1 1l-35.9 20.7c-1.2.7-2.7.7-3.9 0l-35.9-20.7c-1.3-.8-1.8-2.4-1-3.8.2-.4.6-.7 1-1z" class="Dh Dp Es"/><path d="M122.1 180.7l35.7-20.6c1.2-.7 2.7-.7 3.9 0l35.7 20.6c1.3.8 1.8 2.4 1 3.7a2.41 2.41 0 0 1-1 1L161.7 206c-1.2.7-2.7.7-3.9 0l-35.7-20.6c-1.3-.8-1.8-2.4-1-3.7.2-.4.6-.7 1-1z" class="Dh Dq Et"/><path d="M122.3 180.8l35.5-20.5c1.2-.7 2.7-.7 3.8 0l35.5 20.5c1.3.7 1.8 2.4 1 3.7a2.41 2.41 0 0 1-1 1L161.6 206c-1.2.7-2.7.7-3.8 0l-35.5-20.5c-1.3-.7-1.8-2.4-1-3.7a1.65 1.65 0 0 1 1-1z" class="Dh Dr Eu"/><path d="M122.4 180.8l35.4-20.4a3.7 3.7 0 0 1 3.8 0l35.4 20.4c1.3.7 1.7 2.4 1 3.7a2.41 2.41 0 0 1-1 1l-35.4 20.4a3.7 3.7 0 0 1-3.8 0l-35.4-20.4c-1.3-.7-1.7-2.4-1-3.7.3-.4.6-.8 1-1z" class="Dh Eh Ev"/><path d="M122.6 180.8l35.2-20.3a3.7 3.7 0 0 1 3.8 0l35.2 20.3c1.3.7 1.7 2.4 1 3.7-.2.4-.6.7-1 1l-35.2 20.3a3.7 3.7 0 0 1-3.8 0l-35.2-20.3c-1.3-.8-1.6-2.5-.8-3.8a2.36 2.36 0 0 1 .8-.9z" class="Dh Ds Ew"/><path d="M122.8 180.8l35-20.2a3.7 3.7 0 0 1 3.8 0l35 20.2c1.3.7 1.7 2.4 1 3.7-.2.4-.6.7-1 1l-35 20.2a3.7 3.7 0 0 1-3.8 0l-35-20.2c-1.1-1-.9-3 .1-4.1.1-.2.1-.2-.1-.6z" class="Dh Dt Ex"/><path d="M123 180.8l34.9-20.1a3.7 3.7 0 0 1 3.8 0l34.9 20.1c1.3.7 1.7 2.4 1 3.6-.2.4-.6.7-1 1l-34.9 20.1a3.7 3.7 0 0 1-3.8 0L123 185.4c-1.3-.7-1.7-2.4-1-3.6.3-.4.6-.8 1-1z" class="Dh Du Ey"/><path d="M123.2 180.8l34.7-20a3.7 3.7 0 0 1 3.8 0l34.7 20c1.3.7 1.7 2.4 1 3.6-.2.4-.6.7-1 1l-34.7 20a3.7 3.7 0 0 1-3.8 0l-34.7-20c-1.1-1-.7-3.1.3-4.1 0-.1 0-.1-.3-.5z" class="Dh Dv Ez"/><path d="M123.3 180.8l34.5-19.9c1.2-.7 2.6-.7 3.7 0l34.5 19.9c1.3.7 1.7 2.4 1 3.6-.2.4-.6.7-1 1l-34.5 19.9c-1.2.7-2.6.7-3.7 0l-34.5-19.9c-1.2-.8-1.4-2.6-.6-3.8.2-.3.4-.5.6-.8z" class="Dh Dw FA"/><path d="M123.5 180.8l34.4-19.8c1.2-.7 2.6-.7 3.7 0l34.4 19.8c1.3.7 1.7 2.3 1 3.6-.2.4-.6.7-1 1l-34.4 19.8c-1.2.7-2.6.7-3.7 0l-34.4-19.8c-1.3-.7-1.7-2.3-1-3.6a4.74 4.74 0 0 1 1-1z" class="Dh Dx FB"/><path d="M123.7 180.8l34.2-19.7c1.1-.7 2.6-.7 3.7 0l34.2 19.7c1.3.7 1.7 2.3 1 3.6-.2.4-.6.7-1 1l-34.2 19.7c-1.1.7-2.6.7-3.7 0l-34.2-19.7c-1.4 0-2.6-.8-2.6-2.3a2.65 2.65 0 0 1 2.6-2.6c0 0 0 0 0 .3z" class="Dh Dy FC"/><path d="M123.8 180.9l34-19.6c1.1-.7 2.5-.7 3.7 0l34 19.6a2.71 2.71 0 0 1 1 3.6c-.2.4-.6.7-1 1l-34 19.6c-1.1.7-2.5.7-3.7 0l-34-19.6c-1.1-.9-1.2-2.7-.3-3.8.1-.4.3-.5.3-.8z" class="Dh Dz FD"/><path d="M124 180.9l33.9-19.6c1.1-.7 2.5-.7 3.7 0l33.9 19.6c1.2.7 1.7 2.3.9 3.6-.2.4-.6.7-.9.9L161.6 205c-1.1.7-2.5.7-3.7 0L124 185.4c-1.2-.7-1.7-2.3-.9-3.6a1.96 1.96 0 0 1 .9-.9z" class="Dh EA FE"/><path d="M124.2 180.9l33.7-19.4a3.35 3.35 0 0 1 3.6 0l33.7 19.4c1.2.7 1.7 2.3.9 3.5-.2.4-.6.7-.9.9l-33.7 19.4a3.35 3.35 0 0 1-3.6 0l-33.7-19.4c-1.1-.9-1.1-2.8-.2-3.9.1-.1.3-.2.2-.5z" class="Dh EB FF"/><path d="M124.4 180.9l33.5-19.4c1.1-.6 2.5-.6 3.6 0l33.5 19.4c1.2.7 1.6 2.3.9 3.5a1.96 1.96 0 0 1-.9.9l-33.5 19.4a3.35 3.35 0 0 1-3.6 0l-33.5-19.4c-.8-.9-.2-2.9 0-4.4z" class="Dh EC FG"/><path d="M124.6 180.9l33.4-19.3c1.1-.6 2.5-.6 3.6 0l33.4 19.3c1.2.7 1.6 2.3.9 3.5a1.96 1.96 0 0 1-.9.9l-33.4 19.3c-1.1.6-2.5.6-3.6 0l-33.4-19.3c-1.2-.7-1.6-2.3-.9-3.5a1.96 1.96 0 0 1 .9-.9z" class="Dh ED FH"/><path d="M124.7 180.9l33.2-19.2c1.1-.6 2.5-.6 3.6 0l33.2 19.2c1.2.7 1.6 2.2.9 3.5-.2.4-.6.7-.9.9l-33.2 19.2c-1.1.6-2.5.6-3.6 0l-33.2-19.2c-1-.9-.9-2.9.1-3.9.1 0 .1-.1-.1-.5z" class="Dh EE FI"/><path d="M124.9 180.9l33-19.1c1.1-.6 2.5-.6 3.6 0l33 19.1c1.2.7 1.6 2.2.9 3.5a1.96 1.96 0 0 1-.9.9l-33 19.1c-1.1.6-2.5.6-3.6 0l-33-19.1c-1.2-.7-1.6-2.2-.9-3.5.2-.3.5-.7.9-.9z" class="Dh EF FJ"/><path d="M125.1 180.9l32.9-19c1.1-.6 2.5-.6 3.6 0l32.8 19c1.2.7 1.6 2.2.9 3.4a1.96 1.96 0 0 1-.9.9l-32.9 19c-1.1.6-2.5.6-3.6 0l-32.8-19c-1-1-.7-2.9.2-3.9 0 0 .1 0-.2-.4z" class="Dh EG FK"/><path d="M125.3 180.9L158 162c1.1-.6 2.4-.6 3.5 0l32.7 18.9c1.2.7 1.6 2.2.9 3.4a1.96 1.96 0 0 1-.9.9l-32.7 18.9c-1.1.6-2.4.6-3.5 0l-32.7-18.9c-1.2-.7-1.6-2.2-.9-3.4.2-.3.5-.6.9-.9z" class="Dh EH FL"/><path d="M125.4 181l32.6-18.8c1.1-.6 2.4-.6 3.5 0L194 181c1.2.7 1.6 2.2.9 3.4a1.96 1.96 0 0 1-.9.9L161.5 204c-1.1.6-2.4.6-3.5 0l-32.5-18.8c-1.2-.7-1.5-2.3-.7-3.5.1-.2.4-.5.6-.7z" class="Dh EI FM"/><path d="M125.6 181l32.4-18.7c1.1-.6 2.4-.6 3.5 0l32.3 18.7c1.2.7 1.6 2.2.9 3.4a1.96 1.96 0 0 1-.9.9L161.5 204c-1.1.6-2.4.6-3.5 0l-32.3-18.7c-1.2-.7-1.6-2.2-.9-3.4.1-.4.4-.7.8-.9z" class="Dh EJ FN"/><use xlink:href="#AF" x="59.7" y="32.8" class="Dh EK FO"/><path d="M126 181l32-18.5c1.1-.6 2.4-.6 3.5 0l32 18.5c1.2.7 1.6 2.2.9 3.3a1.96 1.96 0 0 1-.9.9l-32 18.5c-1.1.6-2.4.6-3.5 0l-32-18.5c-1.2-.7-1.6-2.2-.9-3.3a1.96 1.96 0 0 1 .9-.9z" class="Dh EL FP"/><path d="M126.2 181l31.8-18.4c1.1-.6 2.4-.6 3.4 0l31.8 18.4c1.2.7 1.6 2.2.9 3.3a1.96 1.96 0 0 1-.9.9l-31.9 18.4c-1.1.6-2.4.6-3.4 0l-31.8-18.4c-1.1-.8-1.2-2.5-.4-3.6.2-.1.4-.3.5-.6z" class="Dh EM FQ"/><path d="M126.3 181l31.7-18.3c1.1-.6 2.4-.6 3.4 0l31.7 18.3c1.2.7 1.6 2.2.9 3.3a1.96 1.96 0 0 1-.9.9l-31.7 18.3c-1.1.6-2.4.6-3.4 0l-31.7-18.3c-1.2-.7-1.6-2.2-.9-3.3.3-.4.6-.7.9-.9z" class="Dh EN FR"/><path d="M126.5 181l31.5-18.2c1.1-.6 2.4-.6 3.4 0l31.5 18.2c1.2.7 1.5 2.2.9 3.3a1.96 1.96 0 0 1-.9.9l-31.5 18.2c-1.1.6-2.4.6-3.4 0l-31.5-18.2c-1.2-.7-1.6-2.1-.9-3.3a1.96 1.96 0 0 1 .9-.9z" class="Dh Ei FS"/><path d="M126.7 181l31.3-18.1c1-.6 2.3-.6 3.4 0l31.4 18.1c1.1.7 1.5 2.1.9 3.3a1.96 1.96 0 0 1-.9.9l-31.4 18.1c-1 .6-2.3.6-3.4 0l-31.3-18.1c-1.1-.7-1.5-2.1-.9-3.3a1.96 1.96 0 0 1 .9-.9z" class="Dh EO FT"/><path d="M126.9 181l31.1-18c1-.6 2.3-.6 3.4 0l31.2 18c1.1.7 1.5 2.1.9 3.3a1.96 1.96 0 0 1-.9.9l-31.2 18c-1 .6-2.3.6-3.4 0l-31.2-18c-1.1-.7-1.5-2.1-.8-3.3a1.96 1.96 0 0 1 .9-.9z" class="Dh EP FU"/><path d="M127 181.1l31-17.9c1-.6 2.3-.6 3.4 0l31 17.9c1.1.7 1.5 2.1.9 3.3a1.96 1.96 0 0 1-.9.9l-31 17.9c-1 .6-2.3.6-3.4 0l-31-17.9c-1.1-.7-1.5-2.1-.9-3.3a1.96 1.96 0 0 1 .9-.9z" class="Dh EQ FV"/><path d="M127.2 181.1l30.8-17.8a3.25 3.25 0 0 1 3.3 0l30.8 17.8c1.1.6 1.5 2.1.9 3.2a1.96 1.96 0 0 1-.9.9L161.4 203a3.25 3.25 0 0 1-3.3 0l-30.8-17.8c-1.1-.7-1.3-2.3-.5-3.4 0-.2.3-.5.4-.7z" class="Dh ER FW"/><path d="M127.4 181.1l30.7-17.7a3.25 3.25 0 0 1 3.3 0l30.7 17.7c1.1.6 1.5 2.1.9 3.2a1.96 1.96 0 0 1-.9.9l-30.7 17.7a3.25 3.25 0 0 1-3.3 0l-30.7-17.7c-.9-1-.5-2.8 0-4.1z" class="Dh Ej FX"/><path d="M127.6 181.1l30.5-17.6a3.25 3.25 0 0 1 3.3 0l30.5 17.6c1.1.6 1.5 2.1.9 3.2-.2.4-.5.6-.9.9l-30.5 17.6a3.25 3.25 0 0 1-3.3 0l-30.5-17.6c-1-.9-.8-2.6.1-3.6 0-.1.1-.2-.1-.5z" class="Dh ES FY"/><path d="M127.7 181.1l30.3-17.5a3.25 3.25 0 0 1 3.3 0l30.3 17.5c1.1.7 1.5 2.1.8 3.2-.2.3-.5.6-.8.8l-30.3 17.5a3.25 3.25 0 0 1-3.3 0l-30.3-17.5c-1.1-.6-1.6-2-1-3.1.3-.4.6-.7 1-.9z" class="Dh ET FZ"/><path d="M127.9 181.1l30.2-17.4a3.25 3.25 0 0 1 3.3 0l30.2 17.4c1.1.6 1.5 2.1.8 3.2-.2.4-.5.6-.8.8l-30.2 17.4a3.25 3.25 0 0 1-3.3 0l-30.2-17.4c-1.1-.6-1.5-2.1-.8-3.2.2-.3.5-.6.8-.8z" class="Dh EU Fa"/><path d="M128.1 181.1l30-17.3a3.07 3.07 0 0 1 3.2 0l30 17.3c1.1.6 1.5 2 .9 3.1a1.96 1.96 0 0 1-.9.9l-30 17.3a3.07 3.07 0 0 1-3.2 0l-30-17.3c-1.1-.6-1.5-2-.9-3.1a1.96 1.96 0 0 1 .9-.9z" class="Dh EV Fb"/><path d="M128.3 181.1l29.8-17.2a3.07 3.07 0 0 1 3.2 0l29.8 17.2c1.1.6 1.5 2 .9 3.1a1.96 1.96 0 0 1-.9.9l-29.8 17.2a3.07 3.07 0 0 1-3.2 0l-29.8-17.2c-1.1-.6-1.5-2-.9-3.1a1.96 1.96 0 0 1 .9-.9z" class="Dh EW Fc"/><path d="M128.4 181.1l29.7-17.1a3.07 3.07 0 0 1 3.2 0l29.7 17.1a2.18 2.18 0 0 1 .8 3.1c-.2.4-.5.6-.8.8l-29.7 17.1a3.07 3.07 0 0 1-3.2 0L128.4 185c-1.1-.6-1.5-2-.9-3.1.3-.3.6-.6.9-.8z" class="Dh EX Fd"/><path d="M128.6 181.1l29.5-17a3.07 3.07 0 0 1 3.2 0l29.5 17a2.18 2.18 0 0 1 .8 3.1c-.2.3-.5.6-.8.8l-29.5 17a3.07 3.07 0 0 1-3.2 0l-29.5-17a2.18 2.18 0 0 1-.8-3.1c.2-.3.5-.6.8-.8z" class="Dh EY Fe"/><path d="M128.8 181.2l29.3-16.9a3.07 3.07 0 0 1 3.2 0l29.3 16.9c1.1.6 1.4 2 .8 3.1-.2.3-.5.6-.8.8L161.3 202a3.07 3.07 0 0 1-3.2 0l-29.3-16.9c-1.1-.6-1.4-2-.8-3.1.2-.4.5-.6.8-.8z" class="Dh EZ Ff"/><path d="M129 181.2l29.2-16.8c1-.6 2.2-.6 3.1 0l29.2 16.8c1.1.6 1.4 2 .8 3.1-.2.3-.5.6-.8.8l-29.2 16.8c-1 .6-2.2.6-3.1 0L129 185c-1.1-.6-1.4-2-.7-3.1.1-.3.4-.5.7-.7z" class="Dh Ea Fg"/><path d="M129.1 181.2l29-16.7c1-.6 2.2-.6 3.1 0l29 16.7c1.1.6 1.4 2 .8 3-.2.3-.5.6-.8.8l-29 16.7c-1 .6-2.2.6-3.1 0l-29-16.7c-1.1-.6-1.4-2-.8-3 .2-.3.5-.6.8-.8z" class="Dh Di Fh"/><path d="M129.3 181.2l28.8-16.6c1-.6 2.2-.6 3.1 0l28.8 16.6c1.1.6 1.4 2 .8 3-.2.3-.5.6-.8.8l-28.8 16.6c-1 .6-2.2.6-3.1 0L129.3 185c-1-.6-1.4-2-.8-3 .2-.3.5-.6.8-.8z" class="Dh Eb Fi"/><path d="M129.5 181.2l28.7-16.6a2.89 2.89 0 0 1 3.1 0l28.7 16.6c1.1.6 1.4 2 .8 3-.2.3-.5.6-.8.8l-28.7 16.6a2.89 2.89 0 0 1-3.1 0L129.5 185c-1-.6-1.4-2-.8-3 .2-.3.5-.6.8-.8z" class="Dh Ec Fj"/><path d="M129.7 181.2l28.5-16.4a2.89 2.89 0 0 1 3.1 0l28.5 16.4c1 .6 1.4 1.9.8 3-.2.3-.5.6-.8.8l-28.5 16.4a2.89 2.89 0 0 1-3.1 0L129.7 185c-1-.6-1.4-1.9-.8-3 .2-.3.4-.6.8-.8z" class="Dh Ed Fk"/><path d="M129.9 181.2l28.3-16.4c.9-.5 2.1-.5 3.1 0l28.3 16.4c1 .6 1.4 1.9.8 3-.2.3-.5.6-.8.8l-28.3 16.4c-.9.5-2.1.5-3.1 0L129.9 185c-1-.6-1.4-1.9-.8-3 .1-.3.4-.6.8-.8z" class="Ek"/></g><path d="M126.5 125.6l33.2-19.2 33.3 19.2-33.3 19.5z" fill="#dbe0f0"/><path d="M126.5 125.6v58.3l33.2 19.2v-58.3z" fill="#d8ddee"/><path d="M159.7 203.1l33.3-19.2v-58.3l-33.3 19.2z" class="Em"/><path d="M159.7 165.2l-33.2-19.1v-1.3l33.2 19.1 33.3-19.2v1.3zm0 19.1l-33.2-19.1v-1.3l33.2 19.1 33.3-19.1v1.3zm2.1-36.7l6.2-3.5v2.4l-6.2 3.5zm7.5-4.2l6.2-3.5v2.4l-6.2 3.5zm-7.5 23.6l6.2-3.6v2.4l-6.2 3.5zm7.5-4.2l6.2-3.6v2.4l-6.2 3.5zm-7.5 23.5l6.2-3.5v2.3l-6.2 3.6zm7.5-4.2l6.2-3.5v2.3l-6.2 3.6z" class="Dj"/><use xlink:href="#AJ" class="Em"/><path d="M146.5 120.2c7.2-4.2 19.1-4.2 26.4 0 3.1 1.8 4.9 4.1 5.4 6.5.6-3.1-1.2-6.3-5.4-8.7-7.3-4.2-19.2-4.2-26.4 0-4.1 2.4-5.9 5.6-5.3 8.7.4-2.4 2.2-4.7 5.3-6.5z" class="Ek"/><g class="Dj"><use xlink:href="#AK"/><use xlink:href="#AL"/><use xlink:href="#AK" y="19.3"/><use xlink:href="#AL" y="19.3"/><use xlink:href="#AK" y="38.5"/><use xlink:href="#AL" y="38.5"/><g class="Ef"><use xlink:href="#AJ"/><use xlink:href="#AJ" y="-0.7" class="Dh Ed"/><use xlink:href="#AJ" y="-1.3" class="Dh Ec"/><use xlink:href="#AJ" y="-2" class="Dh Eb"/><use xlink:href="#AJ" y="-2.6" class="Dh Di"/><use xlink:href="#AJ" y="-3.3" class="Dh Ea"/><use xlink:href="#AJ" y="-3.9" class="Dh EZ"/><use xlink:href="#AJ" y="-4.6" class="Dh EY"/><use xlink:href="#AJ" y="-5.2" class="Dh EX"/><use xlink:href="#AJ" y="-5.9" class="Dh EW"/><use xlink:href="#AJ" y="-6.5" class="Dh EV"/><use xlink:href="#AJ" y="-7.2" class="Dh EU"/><use xlink:href="#AJ" y="-7.8" class="Dh ET"/><use xlink:href="#AJ" y="-8.5" class="Dh ES"/><use xlink:href="#AJ" y="-9.1" class="Dh Ej"/><use xlink:href="#AJ" y="-9.8" class="Dh ER"/><use xlink:href="#AM" class="Dh EQ"/><use xlink:href="#AM" y="-0.7" class="Dh EP"/><use xlink:href="#AM" y="-1.3" class="Dh EO"/><use xlink:href="#AM" y="-2" class="Dh Ei"/><use xlink:href="#AM" y="-2.6" class="Dh EN"/><use xlink:href="#AM" y="-3.3" class="Dh EM"/><use xlink:href="#AJ" x="-0.1" y="-14.3" class="Dh EL"/><use xlink:href="#AJ" x="-0.1" y="-15" class="Dh EK"/><use xlink:href="#AJ" x="-0.1" y="-15.6" class="Dh EJ"/><use xlink:href="#AJ" x="-0.1" y="-16.3" class="Dh EI"/><use xlink:href="#AJ" x="-0.1" y="-16.9" class="Dh EH"/><use xlink:href="#AJ" x="-0.1" y="-17.6" class="Dh EG"/><use xlink:href="#AJ" x="-0.1" y="-18.2" class="Dh EF"/><use xlink:href="#AJ" x="-0.1" y="-18.9" class="Dh EE"/><use xlink:href="#AJ" x="-0.1" y="-19.5" class="Dh ED"/><use xlink:href="#AJ" x="-0.1" y="-20.2" class="Dh EC"/><use xlink:href="#AJ" x="-0.1" y="-20.8" class="Dh EB"/><use xlink:href="#AJ" x="-0.1" y="-21.5" class="Dh EA"/><use xlink:href="#AJ" x="-0.1" y="-22.1" class="Dh Dz"/><use xlink:href="#AJ" x="-0.1" y="-22.8" class="Dh Dy"/><use xlink:href="#AJ" x="-0.1" y="-23.4" class="Dh Dx"/><use xlink:href="#AJ" x="-0.1" y="-24.1" class="Dh Dw"/><use xlink:href="#AJ" x="-0.1" y="-24.7" class="Dh Dv"/><use xlink:href="#AJ" x="-0.1" y="-25.4" class="Dh Du"/><use xlink:href="#AJ" x="-0.1" y="-26" class="Dh Dt"/><use xlink:href="#AJ" x="-0.1" y="-26.7" class="Dh Ds"/><use xlink:href="#AJ" x="-0.1" y="-27.3" class="Dh Eh"/><use xlink:href="#AJ" x="-0.1" y="-28" class="Dh Dr"/><use xlink:href="#AM" x="-0.1" y="-18.2" class="Dh Dq"/><use xlink:href="#AM" x="-0.1" y="-18.9" class="Dh Dp"/><use xlink:href="#AM" x="-0.1" y="-19.5" class="Dh Do"/><use xlink:href="#AJ" x="-0.2" y="-30.6" class="Dh Dn"/><use xlink:href="#AJ" x="-0.2" y="-31.2" class="Dh Dm"/><use xlink:href="#AJ" x="-0.2" y="-31.9" class="Dh Dl"/><use xlink:href="#AJ" x="-0.2" y="-32.5" class="Dh Dk"/><use xlink:href="#AJ" x="-0.2" y="-33.2" class="Eg"/></g></g><g class="Ef"><path d="M1.4 180.7l36.9-21.3c1.2-.7 2.8-.7 4 0l36.9 21.3c1.4.8 1.8 2.5 1 3.9a2.41 2.41 0 0 1-1 1l-36.9 21.3c-1.2.7-2.8.7-4 0L1.4 185.6c-1.4-.8 2.6-4.9 3.4-6.3.2-.4-3.8 1.6-3.4 1.4z" fill="#fff" class="Eg"/><path d="M1.6 180.7l36.7-21.2c1.2-.7 2.8-.7 4 0L79 180.7c1.3.8 1.8 2.5 1 3.8a2.41 2.41 0 0 1-1 1l-36.7 21.2c-1.2.7-2.8.7-4 0L1.6 185.6c-1.3-.8 2.6-4.9 3.4-6.2.2-.5-3.8 1.5-3.4 1.3z" class="Dh Dk En"/><path d="M1.8 180.7l36.5-21.1c1.2-.7 2.8-.7 4 0l36.5 21.1c1.3.8 1.8 2.5 1 3.8a2.41 2.41 0 0 1-1 1l-36.5 21.1c-1.2.7-2.8.7-4 0L1.8 185.5c-1.3-.8 2.6-4.9 3.4-6.2.2-.4-3.9 1.6-3.4 1.4z" class="Dh Dl Eo"/><path d="M1.9 180.7l36.4-21c1.2-.7 2.7-.7 3.9 0l36.4 21c1.3.8 1.8 2.5 1 3.8a2.41 2.41 0 0 1-1 1l-36.4 21c-1.2.7-2.7.7-3.9 0l-36.4-21c-2.7 0-.5-2.1-.5-4.8s-2.2-2.5.5 0z" class="Dh Dm Ep"/><path d="M2.1 180.7l36.2-20.9c1.2-.7 2.7-.7 3.9 0l36.2 20.9c1.3.8 1.8 2.5 1 3.8a2.41 2.41 0 0 1-1 1l-36.2 20.9c-1.2.7-2.7.7-3.9 0L2.1 185.5c-7.9 0 2.8 5.6 2.8-2.3s-10.7-14.4-2.8-14.4c0 .1 1.2 10 0 11.9z" class="Dh Dn Eq"/><path d="M2.3 180.7l36-20.8c1.2-.7 2.7-.7 3.9 0l36 20.8c1.3.8 1.8 2.4 1 3.8a2.41 2.41 0 0 1-1 1l-36 20.8c-1.2.7-2.7.7-3.9 0l-36-20.8c-.6-.9.8-3 0-4.8z" class="Dh Do Er"/><path d="M2.5 180.7L38.3 160c1.2-.7 2.7-.7 3.9 0l35.9 20.7c1.3.8 1.8 2.4 1 3.8a2.41 2.41 0 0 1-1 1l-35.9 20.7c-1.2.7-2.7.7-3.9 0L2.5 185.5c4.7 2.9 4-12.5-1-3.8.2-.4.6-.7 1-1z" class="Dh Dp Es"/><path d="M2.7 180.7l35.7-20.6c1.2-.7 2.7-.7 3.9 0L78 180.7c1.3.8 1.8 2.4 1 3.7a2.41 2.41 0 0 1-1 1L42.3 206c-1.2.7-2.7.7-3.9 0L2.7 185.5c-1.3-.8-1.8-2.4-1-3.7.2-.5.5-.8 1-1.1z" class="Dh Dq Et"/><path d="M2.8 180.8l35.5-20.5c1.2-.7 2.7-.7 3.8 0l35.5 20.5c1.3.7 1.8 2.4 1 3.7a2.41 2.41 0 0 1-1 1L42.2 206c-1.2.7-2.7.7-3.8 0L2.8 185.5c-1.3-.7-1.8-2.4-1-3.7.3-.5.6-.8 1-1z" class="Dh Dr Eu"/><path d="M3 180.8l35.4-20.4a3.7 3.7 0 0 1 3.8 0l35.4 20.4c1.3.7 1.7 2.4 1 3.7a2.41 2.41 0 0 1-1 1l-35.4 20.4a3.7 3.7 0 0 1-3.8 0L3 185.5a2.76 2.76 0 0 1-1-3.7c.3-.5.6-.8 1-1z" class="Dh Eh Ev"/><path d="M3.2 180.8l35.2-20.3a3.7 3.7 0 0 1 3.8 0l35.2 20.3c1.3.7 1.7 2.4 1 3.7-.2.4-.6.7-1 1l-35.2 20.3a3.7 3.7 0 0 1-3.8 0L3.2 185.4c-1.3-.7-1.7-2.4-1-3.7.2-.3.6-.7 1-.9z" class="Dh Ds Ew"/><path d="M3.4 180.8l35-20.2a3.7 3.7 0 0 1 3.8 0l35 20.2c1.3.7 1.7 2.4 1 3.7-.2.4-.6.7-1 1l-35 20.2a3.7 3.7 0 0 1-3.8 0l-35-20.2c-1.5 0 1.7-3.2 1.7-4.7s-3.2-.4-1.7 0z" class="Dh Dt Ex"/><path d="M3.5 180.8l34.9-20.1a3.7 3.7 0 0 1 3.8 0L77 180.8c1.3.7 1.7 2.4 1 3.6-.2.4-.6.7-1 1l-34.8 20.1a3.7 3.7 0 0 1-3.8 0L3.5 185.4c-1.3-.7-1.7-2.4-1-3.6.3-.4.6-.8 1-1z" class="Dh Du Ey"/><path d="M3.7 180.8l34.7-20a3.7 3.7 0 0 1 3.8 0l34.7 20c1.3.7 1.7 2.4 1 3.6-.2.4-.6.7-1 1l-34.7 20a3.7 3.7 0 0 1-3.8 0l-34.7-20c0-.3 9.9-2.4 0-4.6z" class="Dh Dv Ez"/><path d="M3.9 180.8l34.5-19.9c1.2-.7 2.6-.7 3.7 0l34.5 19.9c1.3.7 1.7 2.4 1 3.6-.2.4-.6.7-1 1l-34.5 19.9c-1.2.7-2.6.7-3.7 0L3.9 185.4c-1.3-.7-1.7-2.4-1-3.6a4.74 4.74 0 0 1 1-1z" class="Dh Dw FA"/><path d="M4.1 180.8L38.4 161c1.2-.7 2.6-.7 3.7 0l34.4 19.8c1.3.7 1.7 2.3 1 3.6-.2.4-.6.7-1 1l-34.4 19.8c-1.2.7-2.6.7-3.7 0L4.1 185.4c-1.3-.7-1.7-2.3-1-3.6.2-.4.6-.7 1-1z" class="Dh Dx FB"/><path d="M4.2 180.8l34.2-19.7c1.1-.7 2.6-.7 3.7 0l34.2 19.7c1.3.7 1.7 2.3 1 3.6-.2.4-.6.7-1 1l-34.2 19.8c-1.1.7-2.6.7-3.7 0L4.2 185.4c-1.3-.7-1.7-2.3-1-3.6a4.74 4.74 0 0 1 1-1z" class="Dh Dy FC"/><path d="M4.4 180.9l34-19.6c1.1-.7 2.5-.7 3.7 0l34 19.6a2.71 2.71 0 0 1 1 3.6c-.2.4-.6.7-1 1l-34 19.6c-1.1.7-2.5.7-3.7 0l-34-19.6a2.71 2.71 0 0 1-1-3.6c.3-.5.6-.8 1-1z" class="Dh Dz FD"/><path d="M4.6 180.9l33.9-19.6c1.1-.7 2.5-.7 3.7 0L76 180.9c1.2.7 1.7 2.3.9 3.6-.2.4-.6.7-.9.9l-33.9 19.5c-1.1.7-2.5.7-3.7 0L4.6 185.4c-1.2-.7-1.7-2.3-.9-3.6a1.96 1.96 0 0 1 .9-.9z" class="Dh EA FE"/><path d="M4.8 180.9l33.7-19.4a3.35 3.35 0 0 1 3.6 0l33.7 19.4c1.2.7 1.7 2.3.9 3.5-.2.4-.6.7-.9.9l-33.7 19.4a3.35 3.35 0 0 1-3.6 0L4.8 185.4c-1.2-.7-1.7-2.3-.9-3.5.2-.5.5-.8.9-1z" class="Dh EB FF"/><path d="M4.9 180.9l33.5-19.4c1.1-.6 2.5-.6 3.6 0l33.5 19.4c1.2.7 1.6 2.3.9 3.5a1.96 1.96 0 0 1-.9.9L42 204.7a3.35 3.35 0 0 1-3.6 0L4.9 185.3c-1.2-.7-1.6-2.3-.9-3.5.2-.4.6-.7.9-.9z" class="Dh EC FG"/><path d="M5.1 180.9l33.4-19.3c1.1-.6 2.5-.6 3.6 0l33.4 19.3c1.2.7 1.6 2.3.9 3.5a1.96 1.96 0 0 1-.9.9l-33.4 19.3c-1.1.6-2.5.6-3.6 0L5.1 185.3c-1.2-.7-1.6-2.3-.9-3.5a1.96 1.96 0 0 1 .9-.9z" class="Dh ED FH"/><path d="M5.3 180.9l33.2-19.2c1.1-.6 2.5-.6 3.6 0l33.2 19.2c1.2.7 1.6 2.2.9 3.5-.2.4-.6.7-.9.9l-33.2 19.2c-1.1.6-2.5.6-3.6 0L5.3 185.3c-1.2-.7-1.6-2.2-.9-3.5.2-.3.5-.7.9-.9z" class="Dh EE FI"/><path d="M5.5 180.9l33-19.1c1.1-.6 2.5-.6 3.6 0l33 19.1c1.2.7 1.6 2.2.9 3.5a1.96 1.96 0 0 1-.9.9l-33 19.1c-1.1.6-2.5.6-3.6 0l-33-19.1c-4.5 0-2.2 2.4-2.2-2.1 0-4.4-2.3-8.2 2.2-2.3z" class="Dh EF FJ"/><path d="M5.7 180.9L38.5 162c1.1-.6 2.5-.6 3.5 0l32.8 19c1.2.7 1.6 2.2.9 3.4a1.96 1.96 0 0 1-.9.9l-32.8 19c-1.1.6-2.5.6-3.5 0l-32.8-19c-2.2 0-4.1 0-4.1-2.2s1.8-4 4.1-2.2z" class="Dh EG FK"/><path d="M5.8 180.9L38.5 162c1.1-.6 2.4-.6 3.5 0l32.7 18.9c1.2.7 1.6 2.2.9 3.4a1.96 1.96 0 0 1-.9.9L42 204.1c-1.1.6-2.4.6-3.5 0L5.8 185.3c-1.2-.7-1.6-2.2-.9-3.4.2-.4.6-.7.9-1z" class="Dh EH FL"/><path d="M6 181l32.5-18.8c1.1-.6 2.4-.6 3.5 0L74.6 181c1.2.7 1.6 2.2.9 3.4a1.96 1.96 0 0 1-.9.9L42 204c-1.1.6-2.4.6-3.5 0L6 185.3c-1.2-.7-1.6-2.2-.9-3.4.3-.4.5-.7.9-.9z" class="Dh EI FM"/><path d="M6.2 181l32.3-18.7c1.1-.6 2.4-.6 3.5 0L74.4 181c1.2.7 1.6 2.2.9 3.4a1.96 1.96 0 0 1-.9.9L42 203.9c-1.1.6-2.4.6-3.5 0L6.2 185.3c-1.2-.7-1.6-2.2-.9-3.4a1.96 1.96 0 0 1 .9-.9z" class="Dh EJ FN"/><path d="M6.4 181l32.2-18.6c1.1-.6 2.4-.6 3.5 0L74.2 181c1.2.7 1.6 2.2.9 3.4a1.96 1.96 0 0 1-.9.9L42 203.8c-1.1.6-2.4.6-3.5 0L6.4 185.3c-1.2-.7-1.6-2.2-.9-3.4a1.96 1.96 0 0 1 .9-.9z" class="Dh EK FO"/><path d="M6.5 181l32-18.5c1.1-.6 2.4-.6 3.5 0L74 181c1.2.7 1.6 2.2.9 3.3a1.96 1.96 0 0 1-.9.9l-32 18.5c-1.1.6-2.4.6-3.5 0l-32-18.5c-1.2-.7-1.6-2.2-.9-3.3.3-.4.6-.7.9-.9z" class="Dh EL FP"/><path d="M6.7 181l31.9-18.4c1.1-.6 2.4-.6 3.4 0L73.8 181c1.2.7 1.6 2.2.9 3.3a1.96 1.96 0 0 1-.9.9L42 203.6c-1.1.6-2.4.6-3.4 0L6.7 185.2c-1.2-.7-1.6-2.2-.9-3.3a1.96 1.96 0 0 1 .9-.9z" class="Dh EM FQ"/><path d="M6.9 181l31.7-18.3c1.1-.6 2.4-.6 3.4 0L73.7 181c1.2.7 1.6 2.2.9 3.3a1.96 1.96 0 0 1-.9.9L42 203.5c-1.1.6-2.4.6-3.4 0L6.9 185.2c-1.2-.7-1.6-2.1-.9-3.3a1.96 1.96 0 0 1 .9-.9z" class="Dh EN FR"/><path d="M7.1 181l31.5-18.2c1.1-.6 2.4-.6 3.4 0L73.5 181c1.2.7 1.5 2.2.9 3.3a1.96 1.96 0 0 1-.9.9L42 203.4c-1.1.6-2.4.6-3.4 0L7.1 185.2c-1.2-.7-1.6-2.1-.9-3.3a1.96 1.96 0 0 1 .9-.9z" class="Dh Ei FS"/><path d="M7.2 181l31.4-18.1c1-.6 2.3-.6 3.4 0L73.3 181c1.1.7 1.5 2.1.9 3.3a1.96 1.96 0 0 1-.9.9L42 203.3c-1 .6-2.3.6-3.4 0L7.2 185.2c-1.2-.6-1.6-2.1-.9-3.3.2-.4.6-.7.9-.9z" class="Dh EO FT"/><path d="M7.4 181l31.2-18c1.1-.6 2.3-.6 3.4 0l31.2 18c1.1.7 1.5 2.1.9 3.3a1.96 1.96 0 0 1-.9.9l-31.2 18c-1 .6-2.3.6-3.4 0l-31.2-18c-1.2-.6-1.6-2.1-1-3.2.3-.5.6-.8 1-1z" class="Dh EP FU"/><path d="M7.6 181.1l31-17.9a3.25 3.25 0 0 1 3.3 0l31 17.9c1.1.7 1.5 2.1.9 3.3a1.96 1.96 0 0 1-.9.9l-31 17.9a3.25 3.25 0 0 1-3.3 0l-31-17.9c-1.5 0-2.7-.5-2.7-2.1s1.2-2.8 2.7-2.1z" class="Dh EQ FV"/><path d="M7.8 181.1l30.8-17.8a3.25 3.25 0 0 1 3.3 0l30.8 17.8c1.1.6 1.5 2.1.9 3.2a1.96 1.96 0 0 1-.9.9L42 203a3.25 3.25 0 0 1-3.3 0L7.8 185.2c-1.1-.7-1.5-2.1-.9-3.2a1.96 1.96 0 0 1 .9-.9z" class="Dh ER FW"/><path d="M7.9 181.1l30.7-17.7a3.25 3.25 0 0 1 3.3 0l30.7 17.7c1.1.6 1.5 2.1.9 3.2a1.96 1.96 0 0 1-.9.9l-30.7 17.7a3.25 3.25 0 0 1-3.3 0L7.9 185.1c-1.1-.6-1.5-2.1-.9-3.2.3-.3.6-.6.9-.8z" class="Dh Ej FX"/><path d="M8.1 181.1l30.5-17.6a3.25 3.25 0 0 1 3.3 0l30.5 17.6c1.1.6 1.5 2.1.9 3.2-.2.4-.5.6-.9.9l-30.5 17.6a3.25 3.25 0 0 1-3.3 0L8.1 185.1c-1.1-.6-1.5-2.1-.9-3.2.3-.3.6-.6.9-.8z" class="Dh ES FY"/><path d="M8.3 181.1l30.3-17.5a3.25 3.25 0 0 1 3.3 0l30.3 17.5c1.1.7 1.5 2.1.8 3.2-.2.3-.5.6-.8.8l-30.3 17.5a3.25 3.25 0 0 1-3.3 0L8.3 185.1c-1.1-.6-1.5-2.1-.8-3.2.2-.3.4-.6.8-.8z" class="Dh ET FZ"/><path d="M8.5 181.1l30.2-17.4a3.25 3.25 0 0 1 3.3 0l30.2 17.4c1.1.6 1.5 2.1.8 3.2-.2.4-.5.6-.8.8L42 202.5a3.25 3.25 0 0 1-3.3 0L8.5 185.1c-1.1-.6-1.5-2-.9-3.2a2.36 2.36 0 0 1 .9-.8z" class="Dh EU Fa"/><path d="M8.6 181.1l30-17.3a3.07 3.07 0 0 1 3.2 0l30 17.3c1.1.6 1.5 2 .9 3.1a1.96 1.96 0 0 1-.9.9l-30 17.3a3.07 3.07 0 0 1-3.2 0l-30-17.3c-1.3 0-2.3-.7-2.3-2s1.1-2.3 2.3-2z" class="Dh EV Fb"/><path d="M8.8 181.1l29.8-17.2a3.07 3.07 0 0 1 3.2 0l29.8 17.2c1.1.6 1.5 2 .9 3.1a1.96 1.96 0 0 1-.9.9l-29.8 17.2a3.07 3.07 0 0 1-3.2 0L8.8 185.1A2.18 2.18 0 0 1 8 182a2.36 2.36 0 0 1 .8-.9z" class="Dh EW Fc"/><path d="M9 181.1L38.7 164a3.07 3.07 0 0 1 3.2 0l29.7 17.1a2.18 2.18 0 0 1 .8 3.1c-.2.4-.5.6-.8.8l-29.7 17.1a3.07 3.07 0 0 1-3.2 0L9 185.1a2.18 2.18 0 0 1-.8-3.1c.2-.4.4-.7.8-.9z" class="Dh EX Fd"/><path d="M9.2 181.1l29.5-17a3.07 3.07 0 0 1 3.2 0l29.5 17a2.18 2.18 0 0 1 .8 3.1c-.2.3-.5.6-.8.8l-29.5 17a3.07 3.07 0 0 1-3.2 0L9.2 185c-.7-.7.1-2.5 0-3.9z" class="Dh EY Fe"/><path d="M9.4 181.2l29.3-16.9a3.07 3.07 0 0 1 3.2 0l29.3 16.9c1.1.6 1.4 2 .8 3.1-.2.3-.5.6-.8.8L41.9 202a3.07 3.07 0 0 1-3.2 0L9.4 185.1c-1.1-.6-1.4-2-.8-3.1.1-.4.4-.6.8-.8z" class="Dh EZ Ff"/><path d="M9.5 181.2l29.2-16.8a3.07 3.07 0 0 1 3.2 0L71 181.2c1.1.6 1.4 2 .7 3.1-.2.3-.4.6-.7.7l-29.1 16.9a3.07 3.07 0 0 1-3.2 0L9.5 185c-1.1-.6-1.4-2-.7-3.1.2-.3.4-.5.7-.7z" class="Dh Ea Fg"/><path d="M9.7 181.2l29-16.7c1-.6 2.2-.6 3.1 0l29 16.7c1.1.6 1.4 2 .8 3-.2.3-.5.6-.8.8l-29 16.7c-1 .6-2.2.6-3.1 0L9.7 185c-1.1-.6-1.4-2-.8-3 .2-.4.5-.6.8-.8z" class="Dh Di Fh"/><path d="M9.9 181.2l28.8-16.6c1-.6 2.2-.6 3.1 0l28.8 16.6c1.1.6 1.4 2 .8 3-.2.3-.5.6-.8.8l-28.8 16.6c-1 .6-2.2.6-3.1 0L9.9 185c-1-.6-1.4-2-.8-3 .2-.3.5-.6.8-.8z" class="Dh Eb Fi"/><path d="M10.1 181.2l28.7-16.6a2.89 2.89 0 0 1 3.1 0l28.7 16.6c1.1.6 1.4 2 .8 3-.2.3-.5.6-.8.8l-28.7 16.6a2.89 2.89 0 0 1-3.1 0L10.1 185c-1-.6-1.4-2-.8-3 .2-.3.4-.6.8-.8z" class="Dh Ec Fj"/><path d="M10.2 181.2l28.5-16.4a2.89 2.89 0 0 1 3.1 0l28.5 16.4c1 .6 1.4 1.9.8 3-.2.3-.5.6-.8.8l-28.5 16.4a2.89 2.89 0 0 1-3.1 0L10.2 185c-1-.6-1.4-1.9-.8-3 .2-.3.5-.6.8-.8z" class="Dh Ed Fk"/><path d="M10.4 181.2l28.3-16.4c.9-.5 2.1-.5 3.1 0l28.3 16.4c1 .6 1.4 1.9.8 3-.2.3-.5.6-.8.8l-28.3 16.4c-.9.5-2.1.5-3.1 0L10.4 185c-1-.6-1.4-1.9-.8-3 .2-.3.5-.6.8-.8z" class="Ek"/></g><path d="M7 125.6l33.3-19.2 33.2 19.2-33.2 19.5z" fill="#dbe0f0"/><path d="M7 125.6v58.3l33.3 19.2v-58.3z" fill="#d8ddee"/><path d="M40.3 203.1l33.2-19.2v-58.3l-33.2 19.2z" class="Em"/><path d="M40.3 165.2L7 146.1v-1.3l33.3 19.1 33.2-19.2v1.3zm0 19.1L7 165.2v-1.3L40.3 183l33.2-19.1v1.3zm2.1-36.7l6.2-3.5v2.4l-6.2 3.5zm7.4-4.2l6.2-3.5v2.4l-6.2 3.5zM42.4 167l6.2-3.6v2.4l-6.2 3.5zm7.4-4.2l6.2-3.6v2.4l-6.2 3.5zm-7.4 23.5l6.2-3.5v2.3l-6.2 3.6zm7.4-4.2l6.2-3.5v2.3l-6.2 3.6z" class="Dj"/><use xlink:href="#AJ" x="-119.4" class="Em"/><path d="M27.1 120.2c7.2-4.2 19.1-4.2 26.4 0 3.2 1.8 4.9 4.1 5.4 6.5.6-3.1-1.2-6.3-5.4-8.7-7.3-4.2-19.2-4.2-26.4 0-4.1 2.4-5.9 5.6-5.3 8.7.4-2.4 2.1-4.7 5.3-6.5z" class="Ek"/><g class="Dj"><use xlink:href="#AN"/><use xlink:href="#AK" x="-115.6" y="2.5"/><use xlink:href="#AN" y="19.3"/><use xlink:href="#AK" x="-115.6" y="21.8"/><use xlink:href="#AN" y="38.5"/><use xlink:href="#AK" x="-115.6" y="41"/><g class="Ef"><use xlink:href="#AJ" x="-119.4"/><use xlink:href="#AJ" x="-119.4" y="-0.7" class="Dh Ed"/><use xlink:href="#AJ" x="-119.4" y="-1.3" class="Dh Ec"/><use xlink:href="#AJ" x="-119.4" y="-2" class="Dh Eb"/><use xlink:href="#AJ" x="-119.4" y="-2.6" class="Dh Di"/><use xlink:href="#AJ" x="-119.4" y="-3.3" class="Dh Ea"/><use xlink:href="#AJ" x="-119.4" y="-3.9" class="Dh EZ"/><use xlink:href="#AJ" x="-119.4" y="-4.6" class="Dh EY"/><use xlink:href="#AJ" x="-119.4" y="-5.2" class="Dh EX"/><use xlink:href="#AJ" x="-119.4" y="-5.9" class="Dh EW"/><use xlink:href="#AJ" x="-119.4" y="-6.5" class="Dh EV"/><use xlink:href="#AJ" x="-119.4" y="-7.2" class="Dh EU"/><use xlink:href="#AJ" x="-119.4" y="-7.8" class="Dh ET"/><use xlink:href="#AJ" x="-119.4" y="-8.5" class="Dh ES"/><use xlink:href="#AJ" x="-119.4" y="-9.1" class="Dh Ej"/><use xlink:href="#AJ" x="-119.4" y="-9.8" class="Dh ER"/><use xlink:href="#AJ" x="-119.4" y="-10.4" class="Dh EQ"/><use xlink:href="#AO" class="Dh EP"/><use xlink:href="#AJ" x="-119.4" y="-11.7" class="Dh EO"/><use xlink:href="#AJ" x="-119.4" y="-12.4" class="Dh Ei"/><use xlink:href="#AJ" x="-119.4" y="-13" class="Dh EN"/><use xlink:href="#AO" y="-2.6" class="Dh EM"/><use xlink:href="#AJ" x="-119.4" y="-14.3" class="Dh EL"/><use xlink:href="#AO" y="-3.9" class="Dh EK"/><use xlink:href="#AJ" x="-119.4" y="-15.6" class="Dh EJ"/><use xlink:href="#AO" y="-5.2" class="Dh EI"/><use xlink:href="#AJ" x="-119.4" y="-16.9" class="Dh EH"/><use xlink:href="#AO" y="-6.5" class="Dh EG"/><use xlink:href="#AJ" x="-119.4" y="-18.2" class="Dh EF"/><use xlink:href="#AO" y="-7.8" class="Dh EE"/><use xlink:href="#AJ" x="-119.4" y="-19.5" class="Dh ED"/><use xlink:href="#AO" y="-9.1" class="Dh EC"/><use xlink:href="#AJ" x="-119.4" y="-20.8" class="Dh EB"/><use xlink:href="#AO" y="-10.4" class="Dh EA"/><use xlink:href="#AJ" x="-119.4" y="-22.1" class="Dh Dz"/><use xlink:href="#AJ" x="-119.4" y="-22.7" class="Dh Dy"/><use xlink:href="#AJ" x="-119.4" y="-23.4" class="Dh Dx"/><use xlink:href="#AO" y="-13" class="Dh Dw"/><use xlink:href="#AJ" x="-119.4" y="-24.7" class="Dh Dv"/><use xlink:href="#AJ" x="-119.4" y="-25.3" class="Dh Du"/><use xlink:href="#AJ" x="-119.4" y="-26" class="Dh Dt"/><use xlink:href="#AJ" x="-119.4" y="-26.6" class="Dh Ds"/><use xlink:href="#AJ" x="-119.4" y="-27.3" class="Dh Eh"/><use xlink:href="#AJ" x="-119.4" y="-27.9" class="Dh Dr"/><use xlink:href="#AJ" x="-119.4" y="-28.6" class="Dh Dq"/><use xlink:href="#AJ" x="-119.4" y="-29.2" class="Dh Dp"/><use xlink:href="#AJ" x="-119.4" y="-29.9" class="Dh Do"/><use xlink:href="#AJ" x="-119.4" y="-30.5" class="Dh Dn"/><use xlink:href="#AJ" x="-119.4" y="-31.2" class="Dh Dm"/><use xlink:href="#AJ" x="-119.4" y="-31.8" class="Dh Dl"/><use xlink:href="#AJ" x="-119.4" y="-32.5" class="Dh Dk"/><use xlink:href="#AJ" x="-119.4" y="-33.1" class="Eg"/></g></g><g opacity=".4" class="Ee"><path d="M133 201.5c-.8 0-1.4-.6-1.4-1.4v-6.7c0-3.5 1.9-6.7 4.9-8.4l3-2c.6-.4 1.5-.3 1.9.3s.3 1.5-.3 1.9c-.1.1-.1.1-.2.1l-3 2c-2.2 1.2-3.5 3.6-3.5 6.1v6.7c0 .7-.7 1.3-1.4 1.4z"/></g><g opacity=".4" class="Ee"><path d="M139.6 205.4c-.8 0-1.4-.6-1.4-1.4v-6.7c0-3.5 1.9-6.7 4.9-8.4l3-2c.6-.4 1.5-.3 1.9.3s.3 1.5-.3 1.9c-.1.1-.1.1-.2.1l-3 2c-2.2 1.2-3.5 3.6-3.5 6.1v6.7a1.7 1.7 0 0 1-1.4 1.4z"/></g><path d="M133 200.6c-.2 0-.5-.2-.5-.4h0v-6.7c0-3.2 1.7-6.1 4.4-7.6l3-2c.2-.2.5-.1.6.1s.1.5-.1.6l-.1.1-3 2c-2.5 1.4-4 4-4 6.9v6.7c.1 0-.1.2-.3.3h0zm6.6 3.8c-.2 0-.5-.2-.5-.4h0v-6.7c0-3.2 1.7-6.1 4.4-7.6l3-2c.2-.2.5-.1.6.1s.1.5-.1.6l-.1.1-3 2c-2.5 1.4-4 4-4 6.9v6.7c.1.1-.1.3-.3.3z" class="Ee"/><g opacity=".4" class="Ee"><path d="M70.2 201.4c.7 0 1.3-.6 1.3-1.3v-6.3c0-3.3-1.8-6.4-4.6-8L64 184c-.6-.4-1.4-.1-1.8.5s-.1 1.4.5 1.8h0l2.9 1.9c2.1 1.2 3.3 3.4 3.3 5.7v6.3c0 .6.6 1.2 1.3 1.2z"/></g><g opacity=".4" class="Ee"><path d="M64 205.1c.7 0 1.3-.6 1.3-1.3v-6.3c0-3.3-1.8-6.4-4.6-8l-2.9-1.9c-.6-.4-1.4-.1-1.8.5s-.1 1.4.5 1.8h0l2.9 1.9c2.1 1.2 3.3 3.4 3.3 5.7v6.3c-.1.7.5 1.3 1.3 1.3-.1 0-.1 0 0 0z"/></g><path d="M70.2 200.5c.2 0 .4-.2.4-.4v-6.3c0-3-1.6-5.7-4.2-7.2l-2.9-1.9c-.2-.1-.5 0-.6.2s0 .5.2.6l2.9 1.9c2.3 1.3 3.8 3.8 3.8 6.5v6.3c0 .1.1.3.4.3zm-6.2 3.7c.2 0 .4-.2.4-.4v-6.3c0-3-1.6-5.7-4.2-7.2l-2.9-1.9c-.2-.1-.5 0-.6.2s0 .5.2.6h0l2.9 1.9c2.3 1.3 3.8 3.8 3.8 6.5v6.3c-.1.1.1.3.4.3z" class="Ee"/><path d="M98.9 182.9l-42.4 24.5c-.9.5-1.1 1.6-.7 2.4.2.3.4.5.7.7L98.9 235c1.1.6 2.5.6 3.6 0l42.4-24.5c.9-.5 1.1-1.6.7-2.4-.2-.3-.4-.5-.7-.7l-42.4-24.5c-1.1-.6-2.5-.6-3.6 0z" fill="#fbfbfc" class="Dh Dk"/><path d="M98.9 183l-42.2 24.4c-.9.5-1.2 1.6-.7 2.4.2.3.4.5.7.7l42.2 24.4c1.1.6 2.5.6 3.6 0l42.2-24.4c.9-.5 1.2-1.6.7-2.4-.2-.3-.4-.5-.7-.7L102.5 183c-1.1-.6-2.5-.6-3.6 0z" fill="#f8f8f9" class="Dh Dl"/><path d="M98.9 183.1l-42.1 24.3c-.9.5-1.2 1.6-.7 2.4.2.3.4.5.7.7l42.1 24.3c1.1.6 2.5.6 3.6 0l42.1-24.3c.9-.5 1.2-1.6.7-2.4-.2-.3-.4-.5-.7-.7l-42.1-24.3a3.35 3.35 0 0 0-3.6 0h0z" fill="#f4f4f6" class="Dh Dm"/><path d="M98.9 183.2l-42 24.3c-.9.5-1.2 1.6-.7 2.4.2.3.4.5.7.7l42 24.2c1.1.6 2.5.6 3.6 0l42-24.3c.9-.5 1.2-1.6.7-2.4-.2-.3-.4-.5-.7-.7l-42-24.2a3.35 3.35 0 0 0-3.6 0h0z" fill="#f1f1f3" class="Dh Dn"/><path d="M98.9 183.2L57 207.4c-.9.5-1.2 1.5-.7 2.4.2.3.4.5.7.7l41.9 24.2c1.1.6 2.5.6 3.6 0l41.9-24.2c.9-.5 1.2-1.5.7-2.4-.2-.3-.4-.5-.7-.7l-41.9-24.2c-1.1-.6-2.5-.6-3.6 0z" fill="#ededf0" class="Dh Do"/><path d="M98.9 183.3l-41.8 24.2c-.8.5-1.1 1.6-.6 2.4.2.3.4.5.6.6l41.8 24.1c1.1.6 2.5.6 3.6 0l41.8-24.1c.8-.5 1.1-1.6.6-2.4-.2-.3-.4-.5-.6-.6l-41.8-24.2c-1.1-.6-2.5-.6-3.6 0h0z" fill="#e9e9ed" class="Dh Dp"/><path d="M98.9 183.4l-41.7 24c-.8.5-1.1 1.6-.6 2.4.2.3.4.5.6.6l41.7 24.1c1.1.6 2.5.6 3.6 0l41.7-24.1c.8-.5 1.1-1.6.6-2.4-.2-.3-.4-.5-.6-.6l-41.7-24a3.35 3.35 0 0 0-3.6 0z" fill="#e6e6eb" class="Dh Dq"/><path d="M98.9 183.4l-41.5 24c-.8.5-1.1 1.6-.6 2.4.2.3.4.5.6.6l41.5 24c1.1.6 2.5.6 3.5 0l41.5-24c.8-.5 1.1-1.6.6-2.4-.2-.3-.4-.5-.6-.6l-41.4-24c-1.1-.6-2.5-.6-3.6 0h0z" fill="#e2e2e8" class="Dh Dr"/><path d="M98.9 183.5l-41.4 24c-.8.5-1.1 1.5-.6 2.4a.9.9 0 0 0 .6.6l41.4 23.9c1.1.6 2.4.6 3.5 0l41.4-23.9c.8-.5 1.1-1.5.6-2.4-.2-.3-.4-.5-.6-.6l-41.3-24c-1.1-.6-2.5-.6-3.6 0h0z" opacity=".176" fill="#dfdfe5" class="Dh"/><path d="M98.9 183.6l-41.3 23.9c-.8.5-1.1 1.6-.6 2.4.2.3.4.5.6.6l41.3 23.8c1.1.6 2.4.6 3.5 0l41.3-23.8c.8-.5 1.1-1.6.6-2.4-.2-.3-.4-.5-.6-.6l-41.2-23.9c-1.1-.6-2.5-.6-3.6 0h0z" fill="#dbdbe2" class="Dh Ds"/><path d="M98.9 183.7l-41.2 23.8c-.8.5-1.1 1.5-.6 2.4.2.3.4.5.6.6l41.2 23.8c1.1.6 2.4.6 3.5 0l41.2-23.8c.8-.5 1.1-1.5.6-2.4-.2-.3-.4-.5-.6-.6l-41.2-23.8c-1-.6-2.4-.7-3.5 0h0z" fill="#d8d8df" class="Dh Dt"/><path d="M98.9 183.7l-41 23.7c-.8.5-1.1 1.5-.6 2.4.2.3.4.5.6.6L99 234.1c1.1.6 2.4.6 3.5 0l41-23.7c.8-.5 1.1-1.5.6-2.4-.2-.3-.4-.5-.6-.6l-41.1-23.7c-1-.6-2.4-.6-3.5 0h0z" fill="#d4d4dc" class="Dh Du"/><path d="M98.9 183.8l-41 23.7c-.8.5-1.1 1.5-.6 2.4.2.3.4.5.6.6l41 23.7c1.1.6 2.4.6 3.5 0l41-23.7c.8-.5 1.1-1.5.6-2.4-.2-.3-.4-.5-.6-.6l-41-23.7c-1-.6-2.4-.6-3.5 0z" fill="#d0d0d9" class="Dh Dv"/><path d="M99 183.8l-40.9 23.7c-.8.5-1.1 1.5-.6 2.4.2.3.4.5.6.6L99 234.1c1.1.6 2.4.6 3.5 0l40.8-23.6c.8-.5 1.1-1.5.6-2.4-.2-.3-.4-.5-.6-.6l-40.9-23.7a3.44 3.44 0 0 0-3.4 0z" fill="#cdcdd6" class="Dh Dw"/><path d="M99 184l-40.8 23.5c-.8.5-1.1 1.5-.6 2.4.1.3.4.5.6.6L98.9 234c1.1.6 2.4.6 3.5 0l40.7-23.5c.8-.5 1.1-1.5.6-2.4-.1-.3-.4-.5-.6-.6L102.4 184c-1-.7-2.4-.7-3.4 0z" fill="#c9c9d3" class="Dh Dx"/><path d="M99 184l-40.6 23.5c-.8.5-1.1 1.5-.6 2.3.2.3.4.5.6.6L99 233.8c1.1.6 2.4.6 3.5 0l40.6-23.4c.8-.5 1.1-1.5.6-2.3-.2-.3-.4-.5-.6-.6l-40.7-23.4c-1-.7-2.4-.7-3.4-.1h0z" fill="#c6c6d0" class="Dh Dy"/><path d="M99 184.1l-40.5 23.4c-.8.5-1.1 1.5-.6 2.3.1.3.4.5.6.6L99 233.8c1.1.6 2.4.6 3.5 0l40.5-23.4c.8-.5 1.1-1.5.6-2.3-.1-.3-.4-.5-.6-.6l-40.6-23.4a3.44 3.44 0 0 0-3.4 0h0z" fill="#c2c2cd" class="Dh Dz"/><path d="M99 184.2l-40.4 23.3c-.8.5-1.1 1.5-.6 2.3.1.3.4.5.6.6L99 233.7c1.1.6 2.4.6 3.4 0l40.4-23.3c.8-.5 1.1-1.5.6-2.3-.1-.3-.4-.5-.6-.6l-40.4-23.3c-1.1-.6-2.4-.6-3.4 0h0z" fill="#bebeca" class="Dh EA"/><path d="M99 184.2l-40.3 23.3c-.8.5-1.1 1.5-.6 2.3.1.3.4.5.6.6l40.2 23.2c1.1.6 2.4.6 3.4 0l40.2-23.2c.8-.5 1.1-1.5.6-2.3-.1-.3-.4-.5-.6-.6l-40.1-23.2c-1.1-.6-2.4-.7-3.4-.1z" fill="#bbbbc7" class="Dh EB"/><path d="M99 184.3l-40.2 23.2c-.8.5-1.1 1.5-.6 2.3.1.3.4.5.6.6l40.1 23.2c1 .6 2.3.6 3.4 0l40.2-23.2c.8-.5 1.1-1.5.6-2.3-.1-.3-.4-.5-.6-.6l-40.1-23.2c-1.1-.6-2.4-.6-3.4 0z" fill="#b7b7c5" class="Dh EC"/><path d="M99 184.4l-40 23.1c-.8.5-1.1 1.5-.6 2.3.1.3.4.5.6.6l40 23.1c1 .6 2.3.6 3.4 0l40.1-23.2c.8-.5 1.1-1.5.6-2.3-.1-.3-.4-.5-.6-.6l-40-23c-1.2-.6-2.5-.6-3.5 0h0z" fill="#b4b4c2" class="Dh ED"/><path d="M99 184.4l-39.9 23.1c-.8.5-1.1 1.5-.6 2.3.1.3.4.5.6.6l39.9 23c1 .6 2.3.6 3.4 0l40-23c.8-.5 1.1-1.5.6-2.3-.2-.3-.4-.5-.6-.6l-40-23.1c-1.1-.6-2.4-.6-3.4 0z" fill="#b0b0bf" class="Dh EE"/><path d="M99 184.5l-39.8 23c-.8.5-1.1 1.5-.6 2.3.1.3.4.5.6.6l39.8 23c1 .6 2.3.6 3.4 0l39.8-23c.8-.5 1.1-1.5.6-2.3-.1-.3-.4-.5-.6-.6l-39.8-23c-1.1-.6-2.4-.6-3.4 0z" fill="#acacbc" class="Dh EF"/><path d="M99 184.6l-39.7 22.9c-.8.5-1.1 1.5-.6 2.3.1.3.4.5.6.6L99 233.3c1 .6 2.3.6 3.4 0l39.7-23c.8-.5 1.1-1.5.6-2.3-.1-.3-.4-.5-.6-.6l-39.7-22.8c-1.1-.6-2.4-.6-3.4 0h0z" fill="#a9a9b9" class="Dh EG"/><path d="M99 184.7l-39.5 22.8c-.8.5-1.1 1.5-.6 2.3.1.2.3.4.6.6L99 233.2c1 .6 2.3.6 3.4 0l39.5-22.9c.8-.5 1.1-1.5.6-2.3-.1-.3-.4-.5-.6-.6l-39.5-22.7c-1.1-.6-2.3-.6-3.4 0z" fill="#a5a5b6" class="Dh EH"/><path d="M99 184.7l-39.4 22.8c-.8.5-1.1 1.5-.6 2.3.1.3.4.5.6.6L99 233.2c1 .6 2.3.6 3.4 0l39.5-22.8c.8-.5 1.1-1.5.6-2.3-.1-.3-.4-.5-.6-.6l-39.5-22.8c-1.1-.6-2.3-.6-3.4 0h0z" fill="#a2a2b3" class="Dh EI"/><path d="M99 184.8l-39.3 22.7c-.8.5-1.1 1.5-.6 2.3.1.3.4.5.6.6L99 233.1c1 .6 2.3.6 3.4 0l39.3-22.7c.8-.5 1.1-1.5.6-2.3-.1-.3-.4-.5-.6-.6l-39.3-22.7c-1.1-.6-2.3-.6-3.4 0h0z" fill="#9e9eb0" class="Dh EJ"/><path d="M99 184.9l-39.2 22.6c-.8.5-1.1 1.5-.6 2.3.1.2.3.5.6.6L99 233c1 .6 2.3.6 3.4 0l39.2-22.6c.8-.5 1.1-1.5.6-2.3-.1-.2-.3-.5-.6-.6l-39.2-22.6c-1.1-.6-2.3-.6-3.4 0h0z" fill="#9b9bad" class="Dh EK"/><path d="M99 185l-39.1 22.5c-.8.5-1.1 1.5-.6 2.3l.6.6L99 232.9c1 .6 2.3.6 3.4 0l39.1-22.5c.8-.5 1.1-1.5.6-2.3-.1-.2-.3-.5-.6-.6L102.4 185c-1-.7-2.3-.7-3.4 0z" fill="#9797aa" class="Dh EL"/><path d="M99 185l-39 22.5c-.8.5-1.1 1.5-.6 2.2.1.3.4.5.6.6l39 22.5a3.25 3.25 0 0 0 3.3 0l39-22.5c.8-.5 1.1-1.5.6-2.2-.1-.3-.4-.5-.6-.6l-39-22.5c-1-.6-2.2-.6-3.3 0h0z" fill="#9393a7" class="Dh EM"/><path d="M99 185.1l-38.8 22.4c-.8.5-1 1.5-.6 2.3.1.2.3.4.6.6l38.9 22.5a3.25 3.25 0 0 0 3.3 0l38.9-22.4c.8-.4 1.1-1.5.6-2.2-.1-.3-.4-.5-.6-.6l-38.9-22.6c-1.1-.6-2.3-.6-3.4 0h0z" fill="#9090a4" class="Dh EN"/><path d="M99 185.2l-38.7 22.3a1.53 1.53 0 0 0-.6 2.2c.1.3.4.5.6.6l38.8 22.4a3.25 3.25 0 0 0 3.3 0l38.7-22.4a1.53 1.53 0 0 0 .6-2.2c-.1-.3-.4-.5-.6-.6l-38.8-22.3c-1-.6-2.2-.6-3.3 0z" opacity=".627" fill="#8c8ca2" class="Dh"/><path d="M99 185.2l-38.6 22.3c-.8.5-1 1.5-.6 2.2.1.2.3.4.6.6L99 232.6a3.25 3.25 0 0 0 3.3 0l38.6-22.2c.8-.5 1-1.5.6-2.2-.1-.2-.3-.4-.6-.6l-38.6-22.4c-1-.6-2.2-.6-3.3 0h0z" fill="#89899f" class="Dh EO"/><path d="M99 185.3l-38.4 22.2c-.8.4-1 1.4-.6 2.2.1.3.4.5.6.6l38.5 22.2a3.25 3.25 0 0 0 3.3 0l38.5-22.2c.8-.4 1-1.4.6-2.2-.1-.3-.4-.5-.6-.6l-38.6-22.2c-1-.6-2.2-.6-3.3 0z" fill="#85859c" class="Dh EP"/><path d="M99.1 185.4l-38.4 22.1c-.8.5-1 1.4-.6 2.2.2.3.4.5.6.6L99 232.5a3.25 3.25 0 0 0 3.3 0l38.3-22.2c.8-.5 1-1.4.6-2.2-.1-.2-.3-.4-.6-.6l-38.3-22.2c-1-.5-2.2-.5-3.2.1h0z" fill="#818199" class="Dh EQ"/><path d="M99.1 185.5l-38.3 22.1c-.8.4-1 1.4-.6 2.2.1.2.3.5.6.6l38.3 22.1a3.25 3.25 0 0 0 3.3 0l38.3-22.1c.8-.4 1-1.4.6-2.2-.1-.2-.3-.5-.6-.6l-38.4-22.1a3.07 3.07 0 0 0-3.2 0z" fill="#7e7e96" class="Dh ER"/><path d="M99.1 185.6l-38.1 22c-.8.4-1 1.4-.6 2.2.1.2.3.4.5.6l38.1 22c1 .6 2.2.6 3.3 0l38.2-22c.8-.4 1-1.4.6-2.2-.1-.2-.3-.5-.6-.6l-38.1-22c-1.1-.6-2.3-.6-3.3 0h0z" opacity=".725" fill="#7a7a93" class="Dh"/><path d="M99.1 185.6l-38 22c-.8.4-1 1.4-.6 2.2.1.3.4.5.6.6l38 21.9a3.07 3.07 0 0 0 3.2 0l38-21.9c.8-.4 1-1.4.6-2.2-.1-.3-.4-.5-.6-.6l-38-22a3.07 3.07 0 0 0-3.2 0h0z" fill="#777790" class="Dh ES"/><path d="M99.1 185.7l-37.9 21.9c-.8.4-1 1.4-.6 2.2.1.3.4.5.6.6l37.9 21.9a3.07 3.07 0 0 0 3.2 0l37.9-21.9c.8-.4 1-1.4.6-2.2-.1-.2-.3-.4-.6-.6l-37.9-22c-1-.5-2.2-.5-3.2.1z" fill="#73738d" class="Dh ET"/><path d="M99.1 185.7l-37.8 21.9c-.8.4-1 1.4-.6 2.2.1.2.3.4.6.6l37.8 21.8a3.07 3.07 0 0 0 3.2 0l37.8-21.8c.8-.4 1-1.4.6-2.2-.1-.2-.3-.4-.6-.6l-37.8-21.9a3.6 3.6 0 0 0-3.2 0z" fill="#6f6f8a" class="Dh EU"/><path d="M99.1 185.8l-37.7 21.8c-.8.4-1 1.4-.6 2.2.1.2.3.4.6.6l37.7 21.8a3.07 3.07 0 0 0 3.2 0l37.7-21.7c.8-.4 1-1.4.6-2.2-.1-.2-.3-.4-.6-.6l-37.7-21.9a3.6 3.6 0 0 0-3.2 0h0z" fill="#6c6c87" class="Dh EV"/><path d="M99.1 185.9l-37.6 21.7c-.8.4-1 1.4-.6 2.2.2.2.4.4.6.5L99.1 232a3.07 3.07 0 0 0 3.2 0l37.6-21.6c.8-.4 1-1.4.6-2.2-.1-.2-.3-.4-.6-.6l-37.6-21.7a3.07 3.07 0 0 0-3.2 0z" fill="#686884" class="Dh EW"/><path d="M99.1 186l-37.5 21.6c-.8.4-1 1.4-.6 2.2.1.2.3.4.6.6L99 232a3.07 3.07 0 0 0 3.2 0l37.4-21.6c.8-.4 1-1.4.6-2.2-.1-.2-.3-.4-.6-.6L102.3 186a3.07 3.07 0 0 0-3.2 0h0z" fill="#656581" class="Dh EX"/><path d="M99.1 186.1l-37.3 21.5c-.8.4-1 1.4-.6 2.2.1.2.3.4.6.5l37.3 21.5a3.07 3.07 0 0 0 3.2 0l37.3-21.5c.8-.4 1-1.4.6-2.2-.1-.2-.3-.4-.6-.6l-37.3-21.4a3.07 3.07 0 0 0-3.2 0z" fill="#61617e" class="Dh EY"/><path d="M99.1 186.1l-37.2 21.5c-.8.4-1 1.4-.6 2.1.2.2.4.5.6.6l37.2 21.5a3.07 3.07 0 0 0 3.2 0l37.2-21.5c.8-.4 1-1.4.6-2.1-.1-.2-.3-.5-.6-.6l-37.2-21.5a3.07 3.07 0 0 0-3.2 0z" fill="#5e5e7c" class="Dh EZ"/><path d="M99.1 186.2L62 207.6c-.8.4-1 1.4-.6 2.1.1.2.3.4.6.6l37.1 21.4a3.07 3.07 0 0 0 3.2 0l37.1-21.4c.8-.4 1-1.4.6-2.1-.1-.2-.3-.4-.6-.6l-37.1-21.4a3.07 3.07 0 0 0-3.2 0z" fill="#5a5a79" class="Dh Ea"/><path d="M99.1 186.3l-37 21.3c-.7.4-1 1.4-.6 2.1.1.2.3.4.6.6l37 21.3a3.07 3.07 0 0 0 3.2 0l37-21.3c.7-.4 1-1.4.6-2.1-.1-.2-.3-.4-.6-.6l-37-21.3a3.07 3.07 0 0 0-3.2 0h0z" fill="#565676" class="Dh Di"/><path d="M99.1 186.3l-36.8 21.3c-.7.4-1 1.4-.6 2.1.1.2.3.4.6.6l36.9 21.3a3.07 3.07 0 0 0 3.2 0l36.9-21.3c.7-.4 1-1.4.6-2.1-.1-.2-.3-.4-.6-.6l-37-21.3a3.07 3.07 0 0 0-3.2 0z" fill="#535373" class="Dh Eb"/><path d="M99.1 186.4l-36.7 21.2c-.7.4-1 1.4-.6 2.1.1.2.3.4.6.6l36.7 21.2c1 .6 2.2.6 3.1 0l36.7-21.2c.7-.4 1-1.4.6-2.1-.1-.2-.3-.4-.6-.6l-36.6-21.2a3.07 3.07 0 0 0-3.2 0h0z" fill="#4f4f70" class="Dh Ec"/><path d="M99.1 186.5l-36.6 21.1c-.7.4-1 1.4-.6 2.1.2.3.4.5.6.6l36.6 21.1c1 .6 2.2.6 3.1 0l36.6-21.1c.7-.4 1-1.4.6-2.1-.1-.2-.3-.4-.6-.6l-36.5-21.1a3.07 3.07 0 0 0-3.2 0z" fill="#4c4c6d" class="Dh Ed"/><path d="M99.1 186.5l-36.5 21c-.7.4-1 1.4-.6 2.1.1.2.3.4.6.6l36.5 21a2.89 2.89 0 0 0 3.1 0l36.5-21c.7-.4 1-1.4.6-2.1-.1-.2-.3-.4-.6-.6l-36.5-21c-.9-.5-2.1-.5-3.1 0h0z" fill="#48486a"/><linearGradient id="A" gradientUnits="userSpaceOnUse" x1="59.848" y1="208.462" x2="141.648" y2="208.462"><stop offset="0" stop-color="#d3daed"/><stop offset=".44" stop-color="#b8c2e3"/><stop offset="1" stop-color="#99a7d8"/></linearGradient><path d="M99 184.8l-39.2 21.7v2.3c0 .3.2.6.4.8L99 232.1a3.25 3.25 0 0 0 3.3 0l38.8-22.4c.3-.2.5-.5.5-.9v-2.3l-39.3-21.7c-1-.5-2.2-.5-3.3 0z" fill="url(#A)"/><path d="M99 182.9l-38.4 22.2c-.8.5-1 1.4-.6 2.2.1.2.3.4.6.6L99 230.1a3.25 3.25 0 0 0 3.3 0l38.4-22.2c.8-.5 1-1.4.6-2.2-.1-.2-.3-.4-.6-.6l-38.4-22.2c-1-.5-2.2-.5-3.3 0h0z" class="Fm"/><linearGradient id="B" gradientUnits="userSpaceOnUse" x1="73.187" y1="206.487" x2="128.31" y2="206.487"><stop offset="0" stop-color="#b8c1e4"/><stop offset=".46" stop-color="#c2cae8"/><stop offset=".5" stop-color="#d2d9ed"/><stop offset=".5" stop-color="#d3daed"/></linearGradient><path d="M99.5 190.2l-20.5.1-5.8 16.1c-.2.7.1 1.4.7 1.7l25.6 14.8c.7.4 1.6.4 2.3 0l25.7-14.8c.6-.3.9-1 .7-1.7l-5.8-16.1-20.6-.1a1.95 1.95 0 0 0-2.3 0h0z" fill="url(#B)"/><linearGradient id="C" gradientUnits="userSpaceOnUse" x1="75.286" y1="205.375" x2="126.111" y2="205.375"><stop offset="0" stop-color="#48486a"/><stop offset=".46" stop-color="#48486a"/><stop offset=".5" stop-color="#535373"/></linearGradient><path d="M124 194.7l-22.2 12.8c-.7.4-1.5.4-2.1 0l-22.3-12.8-2.1 5.8c-.2.6.1 1.2.6 1.6l23.7 13.7c.7.4 1.5.4 2.1 0l23.7-13.7c.5-.3.8-1 .6-1.6l-2-5.8z" fill="url(#C)"/><path d="M99.8 177.8l-20.3 11.8c-.4.2-.6.8-.3 1.2l.3.3 20.3 11.8a1.72 1.72 0 0 0 1.7 0l20.4-11.8c.4-.2.6-.8.3-1.2l-.3-.3-20.3-11.8a1.91 1.91 0 0 0-1.8 0z" class="Fm"/><linearGradient id="D" gradientUnits="userSpaceOnUse" x1="82.968" y1="190.262" x2="118.529" y2="190.262"><stop offset="0" stop-color="#48486a"/><stop offset="1" stop-color="#5c629e"/></linearGradient><path d="M100 180l-16.7 9.6c-.3.2-.5.6-.3 1l.3.3 16.7 9.6c.4.3 1 .3 1.4 0l16.7-9.6c.3-.2.5-.6.3-1l-.3-.3-16.7-9.6a1.71 1.71 0 0 0-1.4 0z" fill="url(#D)"/><linearGradient id="E" gradientUnits="userSpaceOnUse" x1="86.732" y1="190.225" x2="114.743" y2="190.225"><stop offset="0" stop-color="#1184ad"/><stop offset=".71" stop-color="#54addf"/></linearGradient><use xlink:href="#AP" fill="url(#E)"/><path d="M87 190.1l13.2-7.6c.3-.2.8-.2 1.1 0l13.2 7.6.3.3c.1-.2 0-.5-.3-.6l-13.2-7.6c-.3-.2-.8-.2-1.1 0L87 189.8c-.2.1-.3.4-.3.6 0-.1.1-.3.3-.3zm31.1.3l-16.7 9.7c-.4.3-1 .3-1.4 0l-16.7-9.6c-.1-.1-.3-.2-.3-.4-.1.3 0 .7.3.8l16.7 9.6c.4.3 1 .3 1.4 0l16.7-9.6c.3-.2.4-.5.3-.8 0 .1-.1.2-.3.3h0z" fill="#48486a"/><path d="M79.5 197l.9.5-1.6 4.6-.9-.5 1.6-4.6zm-.2 5.4l.9.5 1.2-3.6-.9-.5-1.2 3.6zm1.4.8l.9.5.9-2.6-.9-.5-.9 2.6zm1.4.8l.9.5 1.4-4-.9-.5-1.4 4zm1.5.8l.9.5.7-2-.9-.5-.7 2zm27.8-1c0 .1-.3.3-.3.4s-.2.3-.3.4-.3.7-.5 1a1.85 1.85 0 0 1-.8.7c-.2.1-.5.1-.7.1s-.5.1-.7.2c-.4.2-.5.9-.6 1.3 0 .2-.1.4-.3.6-.1.1-.3.3-.5.3-.2.1-.4.2-.5.2-.4 0-.8.1-1.1.1-.6.1-1.1.4-1.4.8-.1.2-.2.3-.3.5-.2.3-.4.6-.6.8-.3.1-.3.3-.3.6l.6 1.6 9.6-5.6-1.3-4z" fill="#0073ec"/><path d="M87.8 201.8l3.3 1.9-.2.6-3.3-1.9.2-.6zm-.6 1.7l3.3 1.9-.1.3-3.3-1.9.1-.3z" class="El"/><linearGradient id="F" gradientUnits="userSpaceOnUse" x1="90.728" y1="205.875" x2="91.731" y2="205.875"><stop offset="0" stop-color="#1184ad"/><stop offset=".71" stop-color="#54addf"/></linearGradient><path d="M90.8 205.5l.9.5-.1.3-.9-.5.1-.3z" fill="url(#F)"/><linearGradient id="G" gradientUnits="userSpaceOnUse" x1="92.419" y1="207.725" x2="92.926" y2="207.725"><stop offset="0" stop-color="#1184ad"/><stop offset=".71" stop-color="#54addf"/></linearGradient><path d="M92.5 207.5l.4.2-.1.3-.4-.2.1-.3z" fill="url(#G)"/><linearGradient id="H" gradientUnits="userSpaceOnUse" x1="93.016" y1="208.025" x2="93.523" y2="208.025"><stop offset="0" stop-color="#1184ad"/><stop offset=".71" stop-color="#54addf"/></linearGradient><path d="M93.1 207.8l.4.2-.1.3-.4-.2.1-.3z" fill="url(#H)"/><g class="El"><path d="M86.9 204.2l1.7 1-.1.3-1.7-1c0 .1.1-.3.1-.3zm2.1 1.2l3.3 1.9-.1.3-3.3-1.9.1-.3zm1.5 1.9l3.3 1.9-.1.3-3.3-1.9.1-.3z"/><path d="M94 209.3l2.6 1.5-.1.3-2.6-1.5.1-.3zm-.3-1.1l3.3 1.9-.1.3-3.3-1.9.1-.3zm-1.6-1.9l1.7 1-.1.3-1.7-1 .1-.3z"/><path d="M94.1 207.4l3.1 1.8-.1.3-3.1-1.8c0 .1.1-.3.1-.3zm-7.4-2.4l.7.4-.1.3-.8-.3.2-.4z"/></g><linearGradient id="I" gradientUnits="userSpaceOnUse" x1="89.443" y1="207.025" x2="90.277" y2="207.025"><stop offset="0" stop-color="#1184ad"/><stop offset=".71" stop-color="#54addf"/></linearGradient><path d="M89.5 206.7l.7.4-.1.3-.7-.4.1-.3z" fill="url(#I)"/><linearGradient id="J" gradientUnits="userSpaceOnUse" x1="87.516" y1="206.225" x2="89.364" y2="206.225"><stop offset="0" stop-color="#1184ad"/><stop offset=".71" stop-color="#54addf"/></linearGradient><path d="M87.6 205.6l1.7 1-.1.3-1.7-1 .1-.3z" fill="url(#J)"/><linearGradient id="K" gradientUnits="userSpaceOnUse" x1="92.013" y1="209.725" x2="93.85" y2="209.725"><stop offset="0" stop-color="#1184ad"/><stop offset=".71" stop-color="#54addf"/></linearGradient><path d="M92.1 209.1l1.7 1-.1.3-1.7-1 .1-.3z" fill="url(#K)"/><linearGradient id="L" gradientUnits="userSpaceOnUse" x1="93.929" y1="211.025" x2="96.443" y2="211.025"><stop offset="0" stop-color="#1184ad"/><stop offset=".71" stop-color="#54addf"/></linearGradient><path d="M94 210.2l2.4 1.4-.1.3-2.4-1.4.1-.3z" fill="url(#L)"/><path d="M86.4 205.8l1.7 1-.1.3-1.7-1 .1-.3zm2 1.2l3.3 1.9-.1.3-3.3-1.9.1-.3z" class="El"/><linearGradient id="M" gradientUnits="userSpaceOnUse" x1="118.918" y1="200.475" x2="119.932" y2="200.475"><stop offset="0" stop-color="#1184ad"/><stop offset=".71" stop-color="#54addf"/></linearGradient><path d="M119.8 200.1l-.9.5.1.3.9-.5-.1-.3z" fill="url(#M)"/><linearGradient id="N" gradientUnits="userSpaceOnUse" x1="117.723" y1="202.225" x2="118.23" y2="202.225"><stop offset="0" stop-color="#1184ad"/><stop offset=".71" stop-color="#54addf"/></linearGradient><path d="M118.1 202l-.4.2.1.3.4-.2-.1-.3z" fill="url(#N)"/><linearGradient id="O" gradientUnits="userSpaceOnUse" x1="117.137" y1="202.625" x2="117.644" y2="202.625"><stop offset="0" stop-color="#1184ad"/><stop offset=".71" stop-color="#54addf"/></linearGradient><path d="M117.5 202.4l-.4.2.1.3.4-.2-.1-.3z" fill="url(#O)"/><path d="M120.1 200.8l-1.8 1 .1.3 1.8-1-.1-.3zm.3.9l-3.6 2 .1.3 3.6-2.1c0 .1-.1-.2-.1-.2zm-3.9 2.1l-2.6 1.5.1.3 2.6-1.5-.1-.3zm.4-1.1l-3.3 1.9.1.3 3.3-1.9-.1-.3zm1.6-1.9l-1.7 1 .1.3 1.7-1-.1-.3zm-2 1.2l-3.1 1.8.1.3 3.1-1.8-.1-.3z" class="El"/><linearGradient id="P" gradientUnits="userSpaceOnUse" x1="117.892" y1="203.975" x2="118.817" y2="203.975"><stop offset="0" stop-color="#1184ad"/><stop offset=".71" stop-color="#54addf"/></linearGradient><path d="M118.6 203.6l-.8.5.1.3.8-.5-.1-.3z" fill="url(#P)"/><linearGradient id="Q" gradientUnits="userSpaceOnUse" x1="117.486" y1="204.275" x2="117.813" y2="204.275"><stop offset="0" stop-color="#1184ad"/><stop offset=".71" stop-color="#54addf"/></linearGradient><path d="M117.7 204.1l-.2.1.1.3.2-.1-.1-.3z" fill="url(#Q)"/><path d="M117.2 204.4l-3 1.7.1.3 3-1.7-.1-.3zm3.4-2l-1.8 1 .1.3 1.8-1-.1-.3zm2-.5c-.2 0-.4-.1-.6-.2-.4-.2-.7-.6-.7-1-.2-.8.2-1.7 1-2 .4-.2.8-.1 1.1.1.4.2.7.6.7 1 .2.8-.2 1.7-1 2.1-.1-.1-.3 0-.5 0h0zm.1-2.8h-.3c-.5.2-.8.8-.6 1.4.1.3.2.5.5.6.2.1.4.1.6 0 .5-.2.8-.8.6-1.4-.1-.3-.2-.5-.5-.6h-.3 0z" class="El"/><linearGradient id="R" gradientUnits="userSpaceOnUse" x1="121.311" y1="200.22" x2="124.196" y2="200.22"><stop offset="0" stop-color="#1184ad"/><stop offset=".71" stop-color="#54addf"/></linearGradient><path d="M122.6 201.9c-.2 0-.4-.1-.6-.2-.4-.2-.7-.6-.7-1 0-.2.1-.3.2-.3.2 0 .3.1.3.2.1.3.2.5.5.6.2.1.4.1.6 0 .5-.2.8-.8.6-1.4-.1-.3-.2-.5-.5-.6-.2-.1-.4-.1-.6 0-.2 0-.3-.1-.3-.2s0-.2.1-.3c.4-.2.8-.1 1.1.1.4.2.7.6.7 1 .2.8-.2 1.7-1 2.1 0-.1-.2 0-.4 0h0z" fill="url(#R)"/><g opacity=".3"><linearGradient id="S" gradientUnits="userSpaceOnUse" x1="86.732" y1="190.225" x2="114.743" y2="190.225"><stop offset=".21" stop-color="#4d9ed7"/><stop offset="1" stop-color="#7bbae5"/></linearGradient><use xlink:href="#AP" fill="url(#S)"/><linearGradient id="T" gradientUnits="userSpaceOnUse" x1="86.732" y1="189.58" x2="114.754" y2="189.58"><stop offset=".21" stop-color="#4d9ed7"/><stop offset="1" stop-color="#7bbae5"/></linearGradient><path d="M100.1 181.6l-13.2 7.6c-.3.1-.4.5-.2.7.1.1.1.2.2.2l13.2 7.6c.3.2.8.2 1.1 0l13.2-7.6c.3-.1.4-.5.2-.7 0-.2-.1-.2-.2-.3l-13.2-7.6c-.3-.2-.7-.2-1.1.1z" fill="url(#T)" class="Dh Ed"/><linearGradient id="U" gradientUnits="userSpaceOnUse" x1="86.733" y1="188.925" x2="114.743" y2="188.925"><stop offset=".21" stop-color="#4d9ed7"/><stop offset="1" stop-color="#7bbae5"/></linearGradient><use xlink:href="#AQ" fill="url(#U)" class="Dh Ec"/><linearGradient id="V" gradientUnits="userSpaceOnUse" x1="86.732" y1="188.325" x2="114.742" y2="188.325"><stop offset=".21" stop-color="#4d9ed7"/><stop offset="1" stop-color="#7bbae5"/></linearGradient><use xlink:href="#AR" fill="url(#V)" class="Dh Eb"/><linearGradient id="W" gradientUnits="userSpaceOnUse" x1="86.744" y1="187.655" x2="114.752" y2="187.655"><stop offset=".21" stop-color="#4d9ed7"/><stop offset="1" stop-color="#7bbae5"/></linearGradient><path d="M100.1 179.7L87 187.2c-.3.1-.4.5-.2.7.1.1.1.2.2.2l13.2 7.6c.3.2.8.2 1.1 0l13.1-7.5c.3-.1.4-.5.2-.7-.1-.1-.1-.2-.2-.2l-13.2-7.6c-.3-.3-.7-.2-1.1 0z" fill="url(#W)" class="Dh Di"/><linearGradient id="X" gradientUnits="userSpaceOnUse" x1="86.732" y1="188.925" x2="114.742" y2="188.925"><stop offset=".21" stop-color="#4d9ed7"/><stop offset="1" stop-color="#7bbae5"/></linearGradient><use xlink:href="#AQ" y="-1.9" fill="url(#X)" class="Dh Ea"/><use xlink:href="#AQ" y="-2.6" fill="url(#X)" class="Dh EZ"/><linearGradient id="Y" gradientUnits="userSpaceOnUse" x1="86.733" y1="188.925" x2="114.742" y2="188.925"><stop offset=".21" stop-color="#4d9ed7"/><stop offset="1" stop-color="#7bbae5"/></linearGradient><use xlink:href="#AQ" y="-3.2" fill="url(#Y)" class="Dh EY"/><linearGradient id="Z" gradientUnits="userSpaceOnUse" x1="86.732" y1="185.08" x2="114.755" y2="185.08"><stop offset=".21" stop-color="#4d9ed7"/><stop offset="1" stop-color="#7bbae5"/></linearGradient><use xlink:href="#AS" fill="url(#Z)" class="Dh EX"/><linearGradient id="a" gradientUnits="userSpaceOnUse" x1="86.732" y1="184.425" x2="114.742" y2="184.425"><stop offset=".21" stop-color="#4d9ed7"/><stop offset="1" stop-color="#7bbae5"/></linearGradient><path d="M100.1 176.4L86.9 184c-.3.1-.4.5-.2.7.1.1.1.2.2.2l13.2 7.6c.3.2.8.2 1.1 0l13.2-7.6c.3-.1.4-.5.2-.7-.1-.1-.1-.2-.2-.2l-13.2-7.6c-.3-.2-.7-.2-1.1 0z" fill="url(#a)" class="Dh EW"/><use xlink:href="#AQ" y="-5.1" fill="url(#X)" class="Dh EV"/><use xlink:href="#AQ" y="-5.8" fill="url(#X)" class="Dh EU"/><linearGradient id="b" gradientUnits="userSpaceOnUse" x1="86.732" y1="182.475" x2="114.743" y2="182.475"><stop offset=".21" stop-color="#4d9ed7"/><stop offset="1" stop-color="#7bbae5"/></linearGradient><path d="M100.1 174.5l-13.2 7.6c-.3.1-.4.5-.2.7.1.1.1.2.2.2l13.2 7.5c.3.2.8.2 1.1 0l13.2-7.6c.3-.1.4-.5.2-.7-.1-.1-.1-.2-.2-.2l-13.2-7.5c-.3-.2-.7-.2-1.1 0h0z" fill="url(#b)" class="Dh ET"/><linearGradient id="c" gradientUnits="userSpaceOnUse" x1="86.732" y1="188.925" x2="114.743" y2="188.925"><stop offset=".21" stop-color="#4d9ed7"/><stop offset="1" stop-color="#7bbae5"/></linearGradient><use xlink:href="#AQ" y="-7.1" fill="url(#c)" class="Dh ES"/><linearGradient id="d" gradientUnits="userSpaceOnUse" x1="86.732" y1="181.225" x2="114.742" y2="181.225"><stop offset=".21" stop-color="#4d9ed7"/><stop offset="1" stop-color="#7bbae5"/></linearGradient><use xlink:href="#AT" opacity=".725" fill="url(#d)" class="Dh"/><linearGradient id="e" gradientUnits="userSpaceOnUse" x1="86.733" y1="180.58" x2="114.755" y2="180.58"><stop offset=".21" stop-color="#4d9ed7"/><stop offset="1" stop-color="#7bbae5"/></linearGradient><path d="M100.1 172.6l-13.2 7.6c-.3.1-.4.5-.2.7.1.1.1.2.2.2l13.2 7.6c.3.2.8.2 1.1 0l13.2-7.7c.3-.1.4-.5.2-.7-.1-.1-.1-.2-.2-.2l-13.2-7.6c-.3-.2-.7-.2-1.1.1z" fill="url(#e)" class="Dh ER"/><use xlink:href="#AQ" y="-9" fill="url(#c)" class="Dh EQ"/><linearGradient id="f" gradientUnits="userSpaceOnUse" x1="86.732" y1="188.325" x2="114.743" y2="188.325"><stop offset=".21" stop-color="#4d9ed7"/><stop offset="1" stop-color="#7bbae5"/></linearGradient><use xlink:href="#AR" y="-9.1" fill="url(#f)" class="Dh EP"/><linearGradient id="g" gradientUnits="userSpaceOnUse" x1="86.744" y1="178.625" x2="114.752" y2="178.625"><stop offset=".21" stop-color="#4d9ed7"/><stop offset="1" stop-color="#7bbae5"/></linearGradient><path d="M100.1 170.6L87 178.2c-.3.1-.4.5-.2.7.1.1.1.2.2.2l13.2 7.6c.3.2.8.2 1.1 0l13.1-7.5c.3-.1.4-.5.2-.7 0-.2-.1-.3-.2-.3l-13.2-7.6c-.3-.2-.7-.2-1.1 0z" fill="url(#g)" class="Dh EO"/><use xlink:href="#AQ" y="-10.9" opacity=".627" fill="url(#U)" class="Dh"/><use xlink:href="#AQ" y="-11.6" fill="url(#X)" class="Dh EN"/><use xlink:href="#AQ" y="-12.2" fill="url(#U)" class="Dh EM"/><use xlink:href="#AS" y="-9" fill="url(#Z)" class="Dh EL"/><linearGradient id="h" gradientUnits="userSpaceOnUse" x1="86.733" y1="175.425" x2="114.742" y2="175.425"><stop offset=".21" stop-color="#4d9ed7"/><stop offset="1" stop-color="#7bbae5"/></linearGradient><path d="M100.1 167.4L86.9 175c-.3.1-.4.5-.2.7.1.1.1.2.2.2l13.2 7.6c.3.2.8.2 1.1 0l13.2-7.6c.3-.1.4-.5.2-.7-.1-.1-.1-.2-.2-.2l-13.2-7.6c-.3-.2-.7-.2-1.1 0z" fill="url(#h)" class="Dh EK"/><linearGradient id="i" gradientUnits="userSpaceOnUse" x1="86.733" y1="174.73" x2="114.743" y2="174.73"><stop offset=".21" stop-color="#4d9ed7"/><stop offset="1" stop-color="#7bbae5"/></linearGradient><path d="M100.1 166.8l-13.2 7.5c-.3.1-.4.5-.2.7.1.1.1.2.2.2l13.2 7.6c.3.2.8.2 1.1 0l13.2-7.6c.3-.1.4-.5.2-.7-.1-.1-.1-.2-.2-.2l-13.2-7.6c-.3-.2-.7-.2-1.1.1z" fill="url(#i)" class="Dh EJ"/><use xlink:href="#AQ" y="-14.8" fill="url(#c)" class="Dh EI"/><use xlink:href="#AR" y="-14.8" fill="url(#V)" class="Dh EH"/><use xlink:href="#AQ" y="-16.1" fill="url(#U)" class="Dh EG"/><linearGradient id="j" gradientUnits="userSpaceOnUse" x1="86.734" y1="188.925" x2="114.742" y2="188.925"><stop offset=".21" stop-color="#4d9ed7"/><stop offset="1" stop-color="#7bbae5"/></linearGradient><use xlink:href="#AQ" y="-16.8" fill="url(#j)" class="Dh EF"/><linearGradient id="k" gradientUnits="userSpaceOnUse" x1="86.732" y1="171.517" x2="114.755" y2="171.517"><stop offset=".21" stop-color="#4d9ed7"/><stop offset="1" stop-color="#7bbae5"/></linearGradient><path d="M100.1 163.5l-13.2 7.6c-.3.1-.4.5-.2.7.1.1.1.2.2.2l13.2 7.6c.3.2.8.2 1.1 0l13.2-7.7c.3-.1.4-.5.2-.7-.1-.1-.1-.2-.2-.2l-13.2-7.6c-.3-.1-.7-.1-1.1.1z" fill="url(#k)" class="Dh EE"/><use xlink:href="#AQ" y="-18" fill="url(#c)" class="Dh ED"/><linearGradient id="l" gradientUnits="userSpaceOnUse" x1="86.732" y1="170.175" x2="114.743" y2="170.175"><stop offset=".21" stop-color="#4d9ed7"/><stop offset="1" stop-color="#7bbae5"/></linearGradient><path d="M100.1 162.2l-13.2 7.5c-.3.1-.4.5-.2.7.1.1.1.2.2.2l13.2 7.6c.3.2.8.2 1.1 0l13.2-7.6c.3-.1.4-.5.2-.7-.1-.1-.1-.2-.2-.2l-13.1-7.5c-.4-.2-.8-.2-1.2 0h0z" fill="url(#l)" class="Dh EC"/><linearGradient id="m" gradientUnits="userSpaceOnUse" x1="86.744" y1="169.625" x2="114.755" y2="169.625"><stop offset=".21" stop-color="#4d9ed7"/><stop offset="1" stop-color="#7bbae5"/></linearGradient><path d="M100.1 161.6L87 169.2c-.3.1-.4.5-.2.7.1.1.1.2.2.2l13.2 7.6c.3.2.8.2 1.1 0l13.2-7.6c.3-.1.4-.5.2-.7-.1-.1-.2-.2-.3-.2l-13.2-7.6c-.3-.2-.7-.2-1.1 0h0z" fill="url(#m)" class="Dh EB"/><linearGradient id="n" gradientUnits="userSpaceOnUse" x1="86.733" y1="168.987" x2="114.743" y2="168.987"><stop offset=".21" stop-color="#4d9ed7"/><stop offset="1" stop-color="#7bbae5"/></linearGradient><path d="M100.1 161l-13.2 7.6c-.3.1-.4.5-.2.7.1.1.1.2.2.2l13.2 7.6c.3.2.8.2 1.1 0l13.2-7.6c.3-.1.4-.5.2-.7-.1-.1-.1-.2-.2-.2l-13.2-7.6c-.3-.3-.7-.3-1.1 0z" fill="url(#n)" class="Dh EA"/><use xlink:href="#AQ" y="-20.6" fill="url(#c)" class="Dh Dz"/><linearGradient id="o" gradientUnits="userSpaceOnUse" x1="86.733" y1="167.63" x2="114.743" y2="167.63"><stop offset=".21" stop-color="#4d9ed7"/><stop offset="1" stop-color="#7bbae5"/></linearGradient><path d="M100.1 159.6l-13.2 7.6c-.3.1-.4.5-.2.7.1.1.1.2.2.2l13.2 7.6c.3.2.8.2 1.1 0l13.2-7.5c.3-.1.4-.5.2-.7-.1-.1-.1-.2-.2-.2l-13.2-7.6c-.3-.3-.7-.3-1.1-.1z" fill="url(#o)" class="Dh Dy"/><linearGradient id="p" gradientUnits="userSpaceOnUse" x1="86.732" y1="167.075" x2="114.754" y2="167.075"><stop offset=".21" stop-color="#4d9ed7"/><stop offset="1" stop-color="#7bbae5"/></linearGradient><path d="M100.1 159l-13.2 7.6c-.3.1-.4.5-.2.7.1.1.1.2.2.2l13.2 7.7c.3.2.8.2 1.1 0l13.2-7.7c.3-.1.4-.5.2-.7-.1-.1-.1-.2-.2-.2l-13.1-7.6c-.4-.2-.8-.2-1.2 0z" fill="url(#p)" class="Dh Dx"/><linearGradient id="q" gradientUnits="userSpaceOnUse" x1="86.732" y1="166.425" x2="114.742" y2="166.425"><stop offset=".21" stop-color="#4d9ed7"/><stop offset="1" stop-color="#7bbae5"/></linearGradient><path d="M100.1 158.4L86.9 166c-.3.1-.4.5-.2.7.1.1.1.2.2.2l13.2 7.6c.3.2.8.2 1.1 0l13.2-7.6c.3-.1.4-.5.2-.7-.1-.1-.1-.2-.2-.2l-13.1-7.6c-.4-.2-.8-.2-1.2 0h0z" fill="url(#q)" class="Dh Dw"/><linearGradient id="r" gradientUnits="userSpaceOnUse" x1="86.732" y1="165.675" x2="114.743" y2="165.675"><stop offset=".21" stop-color="#4d9ed7"/><stop offset="1" stop-color="#7bbae5"/></linearGradient><path d="M100.1 157.7l-13.2 7.5c-.3.1-.4.5-.2.7.1.1.1.2.2.2l13.2 7.6c.3.2.8.2 1.1 0l13.2-7.5c.3-.1.4-.5.2-.7-.1-.1-.1-.2-.2-.2l-13.1-7.6c-.4-.2-.8-.2-1.2 0h0z" fill="url(#r)" class="Dh Dv"/><linearGradient id="s" gradientUnits="userSpaceOnUse" x1="86.733" y1="190.225" x2="114.743" y2="190.225"><stop offset=".21" stop-color="#4d9ed7"/><stop offset="1" stop-color="#7bbae5"/></linearGradient><use xlink:href="#AP" y="-25.1" fill="url(#s)" class="Dh Du"/><linearGradient id="t" gradientUnits="userSpaceOnUse" x1="86.733" y1="164.43" x2="114.743" y2="164.43"><stop offset=".21" stop-color="#4d9ed7"/><stop offset="1" stop-color="#7bbae5"/></linearGradient><path d="M100.1 156.4L86.9 164c-.3.1-.4.5-.2.7.1.1.1.2.2.2l13.2 7.6c.3.2.8.2 1.1 0l13.2-7.6c.3-.1.4-.5.2-.7-.1-.1-.1-.2-.2-.2l-13.1-7.5a1.06 1.06 0 0 0-1.2-.1h0z" fill="url(#t)" class="Dh Dt"/><use xlink:href="#AP" y="-26.4" fill="url(#S)" class="Dh Ds"/><linearGradient id="u" gradientUnits="userSpaceOnUse" x1="86.733" y1="181.225" x2="114.743" y2="181.225"><stop offset=".21" stop-color="#4d9ed7"/><stop offset="1" stop-color="#7bbae5"/></linearGradient><use xlink:href="#AT" y="-18.1" opacity=".176" fill="url(#u)" class="Dh"/><linearGradient id="v" gradientUnits="userSpaceOnUse" x1="86.732" y1="162.525" x2="114.755" y2="162.525"><stop offset=".21" stop-color="#4d9ed7"/><stop offset="1" stop-color="#7bbae5"/></linearGradient><path d="M100.1 154.5l-13.2 7.6c-.3.1-.4.5-.2.7.1.1.1.2.2.2l13.2 7.6c.3.2.8.2 1.1 0l13.2-7.7c.3-.1.4-.5.2-.7-.1-.1-.1-.2-.2-.2l-13.1-7.5c-.4-.2-.8-.2-1.2 0h0z" fill="url(#v)" class="Dh Dr"/><linearGradient id="w" gradientUnits="userSpaceOnUse" x1="86.733" y1="161.917" x2="114.742" y2="161.917"><stop offset=".21" stop-color="#4d9ed7"/><stop offset="1" stop-color="#7bbae5"/></linearGradient><path d="M100.1 153.9l-13.2 7.6c-.3.1-.4.5-.2.7.1.1.1.2.2.2l13.2 7.6c.3.2.8.2 1.1 0l13.2-7.6c.3-.1.4-.5.2-.7-.1-.1-.1-.2-.2-.2l-13.1-7.7c-.4-.1-.8-.1-1.2.1h0z" fill="url(#w)" class="Dh Dq"/><use xlink:href="#AT" y="-20" fill="url(#d)" class="Dh Dp"/><linearGradient id="x" gradientUnits="userSpaceOnUse" x1="86.744" y1="160.625" x2="114.754" y2="160.625"><stop offset=".21" stop-color="#4d9ed7"/><stop offset="1" stop-color="#7bbae5"/></linearGradient><path d="M100.1 152.6L87 160.2c-.3.1-.4.5-.2.7.1.1.1.2.2.2l13.2 7.6c.3.2.8.2 1.1 0l13.2-7.6c.3-.1.4-.5.2-.7-.1-.1-.2-.2-.3-.2l-13.1-7.6c-.4-.2-.8-.2-1.2 0z" fill="url(#x)" class="Dh Do"/><linearGradient id="y" gradientUnits="userSpaceOnUse" x1="86.732" y1="181.225" x2="114.743" y2="181.225"><stop offset=".21" stop-color="#4d9ed7"/><stop offset="1" stop-color="#7bbae5"/></linearGradient><use xlink:href="#AT" y="-21.3" fill="url(#y)" class="Dh Dn"/><linearGradient id="z" gradientUnits="userSpaceOnUse" x1="86.744" y1="159.325" x2="114.755" y2="159.325"><stop offset=".21" stop-color="#4d9ed7"/><stop offset="1" stop-color="#7bbae5"/></linearGradient><path d="M100.1 151.3L87 158.9c-.3.1-.4.5-.2.7.1.1.1.2.2.2l13.2 7.6c.3.2.8.2 1.1 0l13.2-7.6c.3-.1.4-.5.2-.7-.1-.1-.1-.2-.2-.2l-13.2-7.6c-.4-.2-.8-.2-1.2 0z" fill="url(#z)" class="Dh Dm"/><linearGradient id="AA" gradientUnits="userSpaceOnUse" x1="86.744" y1="158.675" x2="114.752" y2="158.675"><stop offset=".21" stop-color="#4d9ed7"/><stop offset="1" stop-color="#7bbae5"/></linearGradient><path d="M100.1 150.6L87 158.3c-.3.1-.4.5-.2.7.1.1.1.2.2.2l13.2 7.6c.3.2.8.2 1.1 0l13.1-7.6c.3-.1.4-.5.2-.7-.1-.1-.1-.2-.2-.2l-13.1-7.7c-.4-.2-.8-.2-1.2 0z" fill="url(#AA)" class="Dh Dl"/><linearGradient id="AB" gradientUnits="userSpaceOnUse" x1="86.744" y1="158.075" x2="114.752" y2="158.075"><stop offset=".21" stop-color="#4d9ed7"/><stop offset="1" stop-color="#7bbae5"/></linearGradient><path d="M100.1 150L87 157.6c-.3.1-.4.5-.2.7.1.1.1.2.2.2l13.1 7.7c.3.2.8.2 1.1 0l13.2-7.7c.3-.1.4-.5.2-.7-.1-.1-.1-.2-.2-.2l-13.1-7.6c-.4-.2-.8-.2-1.2 0h0z" fill="url(#AB)" class="Dh Dk"/></g><g class="Ee"><path d="M136.2 230.7c-.1 0-.2 0-.3-.1l-15.3-8.9c-.3-.2-.4-.6-.2-.9s.5-.4.8-.2l15.3 8.8c.3.2.4.6.3.9-.1.2-.3.4-.6.4" opacity=".3" class="Dh"/><path d="M142.1 233.6h0l-21.3-12.3c-.1-.1-.1-.2-.1-.3.1-.1.2-.1.3-.1l21.2 12.3c.1.1.1.2.1.3s-.1.1-.2.1"/><path d="M139.5 228.3c-.1 0-.2 0-.3-.1l-15.3-8.9c-.3-.2-.4-.6-.2-.9s.5-.4.8-.2l15.3 8.9c.3.2.4.6.3.9-.1.2-.3.3-.6.3" opacity=".3" class="Dh"/><path d="M142.5 229.6h0L124.2 219c-.1-.1-.1-.2-.1-.3.1-.1.2-.1.3-.1h0l18.2 10.6c.1.1.1.2.1.3-.1.1-.2.1-.2.1"/></g><linearGradient id="AC" gradientUnits="userSpaceOnUse" x1="160.048" y1="232.675" x2="132.348" y2="232.675"><stop offset="0" stop-color="#d3daed"/><stop offset=".44" stop-color="#b8c2e3"/><stop offset="1" stop-color="#99a7d8"/></linearGradient><path d="M146.7 224.7L160 232v.8c0 .1-.1.2-.1.3l-13.2 7.6c-.3.2-.8.2-1.1 0l-13.1-7.6c-.1-.1-.2-.2-.2-.3v-.8l13.3-7.3c.3-.2.7-.2 1.1 0h0z" fill="url(#AC)"/><path d="M146.7 224.1l13 7.5c.3.2.3.5.2.8 0 .1-.1.1-.2.2l-13 7.5c-.3.2-.8.2-1.1 0l-13-7.6c-.3-.2-.3-.5-.2-.8 0-.1.1-.1.2-.2l13-7.5c.3-.2.7-.1 1.1.1h0z" class="Fm"/><linearGradient id="AD" gradientUnits="userSpaceOnUse" x1="154.595" y1="232.025" x2="137.959" y2="232.025"><stop offset="0" stop-color="#7bbae5"/><stop offset=".5" stop-color="#60aadd"/><stop offset=".81" stop-color="#4d9ed7"/></linearGradient><path d="M146.5 227.3l8 4.4v.5c0 .1 0 .1-.1.2l-7.9 4.4c-.2.1-.5.1-.7 0l-7.9-4.5c-.1 0-.1-.1-.1-.2v-.4l8-4.4c.3-.1.5-.1.7 0h0z" fill="url(#AD)" class="Dh Di"/><path d="M146.5 226.8l7.8 4.5c.2.1.2.3.1.4 0 .1-.1.1-.1.1l-7.8 4.6c-.2.1-.5.1-.7 0l-7.8-4.5c-.2-.1-.2-.3-.1-.4 0-.1.1-.1.1-.1l7.8-4.5c.3-.2.5-.2.7-.1h0z" fill="#0073ec"/><path d="M154.4 233.3c.1 0 .1 0 .1-.1 0-.3-.2-.7-.5-.8-.1 0-.1 0-.1.1v.1c.2.1.4.4.4.7h.1m-.7.5c.1 0 .1-.1.1-.1 0-.3-.2-.7-.5-.8 0 0-.1-.1-.2 0 0 0-.1.1 0 .2h0c.2.1.4.4.4.7.1-.1.1 0 .2 0m-.7.4c.1 0 .1-.1.1-.1 0-.3-.2-.7-.5-.8-.1 0-.1 0-.1.1v.1c.2.1.4.4.5.7-.2 0-.1 0 0 0m-.8.4c.1 0 .1-.1.1-.1 0-.3-.2-.7-.5-.8 0 0-.1-.1-.2 0 0 0-.1.1 0 .2h0c.2.1.4.4.4.7h.2m-.7.4c.1 0 .1 0 .1-.1 0-.3-.2-.7-.5-.8-.1 0-.1 0-.1.1v.1c.2.1.4.4.5.7-.1 0-.1 0 0 0m-.7.5c.1 0 .1-.1.1-.1 0-.3-.2-.7-.5-.8 0 0-.1-.1-.2 0 0 0-.1.1 0 .2h0c.2.1.4.4.4.7 0-.1.1 0 .2 0m-.8.4c.1 0 .1-.1.1-.1 0-.3-.2-.7-.5-.8-.1 0-.1 0-.1.1v.1c.2.1.4.4.5.7-.1-.1-.1 0 0 0m-.7.4c.1 0 .1 0 .1-.1 0-.3-.2-.7-.5-.8 0 0-.1-.1-.2 0 0 0-.1.1 0 .2h0c.2.1.4.4.4.7h.2m-.8.5c.1 0 .1-.1.1-.1 0-.3-.2-.7-.5-.8-.1 0-.1 0-.1.1v.1c.2.1.4.4.5.7-.1-.1 0 0 0 0m-.7.4c.1 0 .1-.1.1-.1 0-.3-.2-.7-.5-.8 0 0-.1-.1-.2 0 0 0-.1.1 0 .2h0c.2.1.4.4.4.7.1-.1.1 0 .2 0m-9.8-3.9c-.1 0-.1-.1-.1-.1 0-.3.2-.7.5-.8.1 0 .1 0 .1.1v.1c-.2.1-.4.4-.4.7h-.1m.7.5c-.1 0-.1-.1-.1-.1 0-.3.2-.7.5-.8h.2v.1c-.2.1-.4.4-.4.7 0 0-.1 0-.2.1m.8.4c-.1 0-.1-.1 0 0-.1-.4.1-.8.4-.9.1 0 .1 0 .1.1v.1c-.2.1-.4.4-.4.7h-.1m.7.4c-.1 0-.1 0-.1-.1 0-.3.2-.7.5-.8h.2v.1c-.2.1-.4.4-.4.7 0 .1-.1.1-.2.1m.7.4c-.1 0-.1 0-.1-.1 0-.3.2-.7.5-.8.1 0 .1 0 .1.1v.1c-.2.1-.4.4-.5.7h0m.8.5c-.1 0-.1-.1 0 0-.1-.4.1-.8.4-.9 0 0 .1-.1.2 0 0 0 .1.1 0 .2h0c-.2.1-.4.4-.4.7-.1-.1-.1-.1-.2 0m.7.4c-.1 0-.1-.1-.1-.1 0-.3.2-.7.5-.8.1 0 .1 0 .1.1v.1c-.2 0-.4.3-.4.5 0 .1 0 .2-.1.2m.8.4c-.1 0-.1-.1-.1-.1 0-.3.2-.7.5-.8 0 0 .1-.1.2 0 0 0 .1.1 0 .2h0c-.2.1-.4.4-.4.7-.1-.1-.1 0-.2 0m.7.4c-.1 0-.1-.1-.1-.1 0-.3.2-.7.5-.8.1 0 .1 0 .1.1v.1c-.2.1-.4.4-.5.7h0m.7.5c-.1 0-.1-.1-.1-.1 0-.3.2-.7.5-.8h.2v.2h0c-.2.1-.4.4-.4.7 0-.1-.1 0-.2 0" class="Fl"/><defs ><path id="AF" d="M66.1 148.2l32.2-18.6c1.1-.6 2.4-.6 3.5 0l32.2 18.6c1.2.7 1.6 2.2.9 3.4a1.96 1.96 0 0 1-.9.9l-32.2 18.6c-1.1.6-2.4.6-3.5 0l-32.2-18.6c-1.2-.7-1.6-2.2-.9-3.4a1.96 1.96 0 0 1 .9-.9z"/><path id="AG" d="M70.6 82.2c-.6-.3-1-.1-1 .6s.4 1.4 1 1.8c.6.3 1 .1 1-.6s-.4-1.4-1-1.8z"/><path id="AH" d="M114 55.4c7.8-4.5 7.8-11.9 0-16.4s-20.7-4.5-28.5 0-7.8 11.9 0 16.4 20.7 4.5 28.5 0z"/><path id="AI" d="M114 45.6c7.8-4.5 7.8-11.9 0-16.4s-20.7-4.5-28.5 0-7.8 11.9 0 16.4 20.7 4.6 28.5 0z"/><path id="AJ" d="M172.9 133.2c7.3-4.2 7.3-11 0-15.2s-19.2-4.2-26.4 0-7.2 11 0 15.2 19.1 4.2 26.4 0z"/><path id="AK" d="M132.5 139.4c-.5-.3-1-.1-1 .6s.4 1.3 1 1.7c.5.3 1 .1 1-.6-.1-.7-.5-1.3-1-1.7z"/><path id="AL" d="M136.3 141.9c-.5-.3-1-.1-1 .6s.4 1.3 1 1.7c.5.3 1 .1 1-.6-.1-.7-.4-1.3-1-1.7z"/><path id="AM" d="M172.8 122.8c7.3-4.2 7.3-11 0-15.2s-19.2-4.2-26.4 0-7.2 11 0 15.2 19.2 4.2 26.4 0z"/><path id="AN" d="M13 139.4c-.5-.3-1-.1-1 .6s.4 1.3 1 1.7c.5.3 1 .1 1-.6s-.4-1.3-1-1.7z"/><path id="AO" d="M53.5 122.2c7.3-4.2 7.3-11 0-15.2s-19.2-4.2-26.4 0-7.2 11 0 15.2 19.1 4.1 26.4 0z"/><path id="AP" d="M100.1 182.2l-13.2 7.6c-.3.1-.4.5-.2.7.1.1.1.2.2.2l13.2 7.6c.3.2.8.2 1.1 0l13.2-7.6c.3-.1.4-.5.2-.7-.1-.1-.1-.2-.2-.2l-13.1-7.6c-.4-.2-.8-.2-1.2 0z"/><path id="AQ" d="M100.1 180.9l-13.2 7.6c-.3.1-.4.5-.2.7.1.1.1.2.2.2l13.2 7.6c.3.2.8.2 1.1 0l13.2-7.6c.3-.1.4-.5.2-.7-.1-.1-.1-.2-.2-.2l-13.2-7.6c-.3-.2-.7-.2-1.1 0z"/><path id="AR" d="M100.1 180.3l-13.2 7.6c-.3.1-.4.5-.2.7.1.1.1.2.2.2l13.2 7.6c.3.2.8.2 1.1 0l13.2-7.6c.3-.1.4-.5.2-.7-.1-.1-.1-.2-.2-.2l-13.2-7.6c-.3-.2-.7-.2-1.1 0h0z"/><path id="AS" d="M100.1 177.1l-13.2 7.6c-.3.1-.4.5-.2.7.1.1.1.2.2.2l13.2 7.6c.3.2.8.2 1.1 0l13.2-7.7c.3-.1.4-.5.2-.7-.1-.1-.1-.2-.2-.2l-13.2-7.6c-.3-.2-.7-.2-1.1.1h0z"/><path id="AT" d="M100.1 173.2l-13.2 7.6c-.3.1-.4.5-.2.7.1.1.1.2.2.2l13.2 7.6c.3.2.8.2 1.1 0l13.2-7.6c.3-.1.4-.5.2-.7-.1-.1-.1-.2-.2-.2l-13.1-7.6c-.4-.2-.8-.2-1.2 0h0z"/></defs></svg>