<svg width="40" height="40" viewBox="0 0 40 40" fill="none" xmlns="http://www.w3.org/2000/svg"><path fill-rule="evenodd" clip-rule="evenodd" d="M3.77599 0.159466C3.77701 0.159822 3.77805 0.16018 3.77907 0.160536L38.0902 12.0366C38.0909 12.0369 38.0917 12.0373 38.0925 12.0374C40.7087 12.9357 40.5929 16.6231 37.9963 17.4302L22.4859 22.2151C22.4698 22.2201 22.4538 22.2246 22.4377 22.2288C22.3866 22.2425 22.3399 22.2689 22.3023 22.3059C22.2647 22.3428 22.2373 22.3889 22.2228 22.4397L22.2152 22.4651L17.4302 37.9963C16.6231 40.5929 12.9357 40.7087 12.0374 38.0925C12.0373 38.0917 12.0369 38.0909 12.0366 38.0902L0.160536 3.77907C0.16018 3.77805 0.159822 3.77701 0.159466 3.77599C-0.0169322 3.27222 -0.0476967 2.72892 0.0707236 2.20842C0.189387 1.68686 0.453019 1.20947 0.831244 0.831244C1.20947 0.453019 1.68686 0.189387 2.20842 0.0707236C2.72892 -0.0476967 3.27222 -0.0169322 3.77599 0.159466ZM1.30805 3.37579L2.45745 2.97794L14.3367 37.2983L14.338 37.302C14.3766 37.4147 14.4324 37.4709 14.4834 37.5043C14.5424 37.5429 14.6246 37.569 14.7195 37.567C14.8144 37.5653 14.8984 37.5359 14.9598 37.4924C15.0137 37.4543 15.0703 37.3924 15.1069 37.2751C15.1069 37.2753 15.1071 37.2748 15.1069 37.2751L19.8872 21.7597C20.0182 21.3085 20.2631 20.8985 20.5987 20.5695C20.931 20.2435 21.3408 20.0077 21.7892 19.8843L37.2743 15.1072C37.274 15.1072 37.2745 15.1071 37.2743 15.1072C37.3917 15.0706 37.4543 15.0137 37.4924 14.9598C37.5359 14.8984 37.5653 14.8144 37.567 14.7195C37.569 14.6246 37.5429 14.5424 37.5043 14.4834C37.4709 14.4324 37.4147 14.3766 37.302 14.338L37.2983 14.3367L2.97249 2.45557C2.9004 2.43024 2.82262 2.42578 2.7481 2.44273C2.6736 2.45968 2.60541 2.49735 2.55137 2.55137C2.49735 2.60541 2.45968 2.6736 2.44273 2.7481C2.42578 2.82262 2.43022 2.9004 2.45556 2.97249L1.30805 3.37579Z" fill="#2D3C58"></path></svg>