<svg width="40" height="40" viewBox="0 0 40 40" fill="none" xmlns="http://www.w3.org/2000/svg"><path d="M37.6562 19.1596V14.4438C37.6562 12.1269 35.8127 10.2335 33.5156 10.1509V7.25626C33.5156 5.74852 32.289 4.52188 30.7812 4.52188H23.2533L22.2812 1.81977C22.0333 1.13071 21.5316 0.580087 20.8684 0.269384C20.2053 -0.0413977 19.4611 -0.0745227 18.773 0.175946L5.1125 5.1479C4.42516 5.39806 3.8768 5.9011 3.56836 6.56438C3.25992 7.22766 3.22859 7.97118 3.48023 8.65806L4.02906 10.1561C1.78414 10.2949 0 12.1645 0 14.4438V35.6938C0 38.0631 1.92758 39.9906 4.29688 39.9906H33.3594C35.7287 39.9906 37.6562 38.0631 37.6562 35.6938V30.8216C38.9795 30.6315 40 29.4907 40 28.1156V21.8656C40 20.4906 38.9795 19.3498 37.6562 19.1596ZM37.6562 28.1156C37.6562 28.331 37.481 28.5063 37.2656 28.5063H31.0156C29.0771 28.5063 27.5 26.9291 27.5 24.9906C27.5 23.0521 29.0771 21.475 31.0156 21.475H37.2656C37.481 21.475 37.6562 21.6502 37.6562 21.8656V28.1156ZM5.68094 7.85181C5.63242 7.71938 5.66797 7.60759 5.69352 7.55266C5.71906 7.49782 5.78164 7.39852 5.91414 7.35032L19.5746 2.37837C19.7073 2.33016 19.8191 2.36602 19.874 2.39173C19.9289 2.41743 20.028 2.4804 20.0758 2.61321L20.7625 4.52196H20.2344C18.7266 4.52196 17.5 5.7486 17.5 7.25634V10.147H6.5218L5.68094 7.85181ZM31.1719 7.25626V10.1469H19.8438V7.25626C19.8438 7.04087 20.019 6.86563 20.2344 6.86563H30.7812C30.9966 6.86563 31.1719 7.04087 31.1719 7.25626ZM33.3594 37.6469H4.29688C3.21992 37.6469 2.34375 36.7707 2.34375 35.6938V14.4438C2.34375 13.3668 3.21992 12.4906 4.29688 12.4906H33.3594C34.4363 12.4906 35.3125 13.3668 35.3125 14.4438V19.1313H31.0156C27.7848 19.1313 25.1562 21.7598 25.1562 24.9906C25.1562 28.2215 27.7848 30.85 31.0156 30.85H35.3125V35.6938C35.3125 36.7707 34.4363 37.6469 33.3594 37.6469Z" fill="white"></path></svg>